<svg xmlns="http://www.w3.org/2000/svg" xmlns:xlink="http://www.w3.org/1999/xlink" width="500" zoomAndPan="magnify" viewBox="0 0 375 374.999991" height="500" preserveAspectRatio="xMidYMid meet" version="1.0"><defs><g/><clipPath id="d20975c5fa"><path d="M 37.5 37.535156 L 337.5 37.535156 L 337.5 337.496094 L 37.5 337.496094 Z M 37.5 37.535156 " clip-rule="nonzero"/></clipPath><clipPath id="27fe7ddd4a"><path d="M 301.5625 85.097656 C 295.695312 74.9375 285.054688 69.253906 274.109375 69.246094 L 274.113281 69.242188 C 263.167969 69.234375 252.527344 63.550781 246.664062 53.394531 C 237.914062 38.234375 218.527344 33.039062 203.367188 41.792969 L 203.367188 41.785156 C 193.949219 47.210938 182 47.640625 171.886719 41.902344 C 166.929688 38.980469 161.574219 37.527344 155.820312 37.535156 C 144.089844 37.535156 133.847656 43.90625 128.367188 53.382812 L 128.367188 53.378906 C 122.886719 62.851562 112.644531 69.226562 100.914062 69.226562 C 83.410156 69.226562 69.222656 83.414062 69.222656 100.917969 L 69.222656 100.921875 L 69.210938 100.917969 C 69.203125 111.78125 63.605469 122.339844 53.59375 128.230469 C 48.578125 131.0625 44.632812 134.972656 41.761719 139.96875 C 35.894531 150.128906 36.292969 162.183594 41.757812 171.664062 C 47.21875 181.144531 47.617188 193.203125 41.75 203.359375 C 33 218.519531 38.191406 237.902344 53.351562 246.65625 L 53.355469 246.660156 L 53.347656 246.664062 C 62.820312 252.140625 69.191406 262.382812 69.191406 274.113281 C 69.191406 291.617188 83.382812 305.808594 100.886719 305.808594 C 112.617188 305.808594 122.855469 312.179688 128.339844 321.652344 C 133.820312 331.125 144.0625 337.5 155.792969 337.5 C 161.546875 337.507812 166.902344 336.050781 171.859375 333.128906 C 181.96875 327.394531 193.921875 327.824219 203.335938 333.25 L 203.335938 333.238281 L 203.339844 333.242188 C 218.5 341.996094 237.882812 336.800781 246.636719 321.640625 C 252.5 311.484375 263.140625 305.800781 274.085938 305.792969 L 274.082031 305.789062 C 285.027344 305.78125 295.667969 300.097656 301.53125 289.9375 C 304.417969 284.9375 305.789062 279.476562 305.78125 274.089844 L 305.785156 274.09375 C 305.796875 263.535156 311.085938 253.261719 320.578125 247.28125 C 325.695312 244.59375 330.132812 240.46875 333.238281 235.097656 C 339.105469 224.933594 338.707031 212.878906 333.242188 203.394531 C 327.78125 193.914062 327.382812 181.859375 333.246094 171.699219 C 342 156.539062 336.804688 137.15625 321.644531 128.402344 L 321.648438 128.398438 C 312.253906 122.960938 305.90625 112.839844 305.808594 101.226562 C 305.863281 95.746094 304.496094 90.183594 301.5625 85.097656 " clip-rule="nonzero"/></clipPath><linearGradient x1="-0.00000260417" gradientTransform="matrix(0.599999, 0, 0, 0.599999, 37.500004, 37.534209)" y1="0" x2="500.000002" gradientUnits="userSpaceOnUse" y2="0" id="4f2c7bd85b"><stop stop-opacity="1" stop-color="rgb(100%, 34.098816%, 34.098816%)" offset="0"/><stop stop-opacity="1" stop-color="rgb(99.822998%, 34.091187%, 34.356689%)" offset="0.00390625"/><stop stop-opacity="1" stop-color="rgb(99.647522%, 34.085083%, 34.614563%)" offset="0.0078125"/><stop stop-opacity="1" stop-color="rgb(99.47052%, 34.077454%, 34.870911%)" offset="0.0117188"/><stop stop-opacity="1" stop-color="rgb(99.295044%, 34.069824%, 35.128784%)" offset="0.015625"/><stop stop-opacity="1" stop-color="rgb(99.118042%, 34.062195%, 35.385132%)" offset="0.0195313"/><stop stop-opacity="1" stop-color="rgb(98.942566%, 34.054565%, 35.643005%)" offset="0.0234375"/><stop stop-opacity="1" stop-color="rgb(98.765564%, 34.046936%, 35.900879%)" offset="0.0273438"/><stop stop-opacity="1" stop-color="rgb(98.590088%, 34.039307%, 36.158752%)" offset="0.03125"/><stop stop-opacity="1" stop-color="rgb(98.413086%, 34.031677%, 36.4151%)" offset="0.0351563"/><stop stop-opacity="1" stop-color="rgb(98.23761%, 34.025574%, 36.672974%)" offset="0.0390625"/><stop stop-opacity="1" stop-color="rgb(98.060608%, 34.017944%, 36.930847%)" offset="0.0429688"/><stop stop-opacity="1" stop-color="rgb(97.885132%, 34.010315%, 37.188721%)" offset="0.046875"/><stop stop-opacity="1" stop-color="rgb(97.70813%, 34.002686%, 37.445068%)" offset="0.0507812"/><stop stop-opacity="1" stop-color="rgb(97.532654%, 33.995056%, 37.702942%)" offset="0.0546875"/><stop stop-opacity="1" stop-color="rgb(97.355652%, 33.987427%, 37.960815%)" offset="0.0585938"/><stop stop-opacity="1" stop-color="rgb(97.180176%, 33.979797%, 38.218689%)" offset="0.0625"/><stop stop-opacity="1" stop-color="rgb(97.003174%, 33.972168%, 38.475037%)" offset="0.0664062"/><stop stop-opacity="1" stop-color="rgb(96.827698%, 33.966064%, 38.73291%)" offset="0.0703125"/><stop stop-opacity="1" stop-color="rgb(96.650696%, 33.958435%, 38.989258%)" offset="0.0742188"/><stop stop-opacity="1" stop-color="rgb(96.47522%, 33.950806%, 39.247131%)" offset="0.078125"/><stop stop-opacity="1" stop-color="rgb(96.298218%, 33.943176%, 39.505005%)" offset="0.0820313"/><stop stop-opacity="1" stop-color="rgb(96.122742%, 33.935547%, 39.762878%)" offset="0.0859375"/><stop stop-opacity="1" stop-color="rgb(95.947266%, 33.927917%, 40.019226%)" offset="0.0898438"/><stop stop-opacity="1" stop-color="rgb(95.77179%, 33.921814%, 40.2771%)" offset="0.09375"/><stop stop-opacity="1" stop-color="rgb(95.594788%, 33.914185%, 40.534973%)" offset="0.0976562"/><stop stop-opacity="1" stop-color="rgb(95.419312%, 33.906555%, 40.792847%)" offset="0.101562"/><stop stop-opacity="1" stop-color="rgb(95.24231%, 33.898926%, 41.049194%)" offset="0.105469"/><stop stop-opacity="1" stop-color="rgb(95.066833%, 33.891296%, 41.307068%)" offset="0.109375"/><stop stop-opacity="1" stop-color="rgb(94.889832%, 33.883667%, 41.563416%)" offset="0.113281"/><stop stop-opacity="1" stop-color="rgb(94.714355%, 33.876038%, 41.821289%)" offset="0.117188"/><stop stop-opacity="1" stop-color="rgb(94.537354%, 33.868408%, 42.079163%)" offset="0.121094"/><stop stop-opacity="1" stop-color="rgb(94.361877%, 33.862305%, 42.337036%)" offset="0.125"/><stop stop-opacity="1" stop-color="rgb(94.184875%, 33.854675%, 42.593384%)" offset="0.128906"/><stop stop-opacity="1" stop-color="rgb(94.009399%, 33.847046%, 42.851257%)" offset="0.132812"/><stop stop-opacity="1" stop-color="rgb(93.832397%, 33.839417%, 43.109131%)" offset="0.136719"/><stop stop-opacity="1" stop-color="rgb(93.656921%, 33.831787%, 43.367004%)" offset="0.140625"/><stop stop-opacity="1" stop-color="rgb(93.479919%, 33.824158%, 43.623352%)" offset="0.144531"/><stop stop-opacity="1" stop-color="rgb(93.304443%, 33.816528%, 43.881226%)" offset="0.148438"/><stop stop-opacity="1" stop-color="rgb(93.127441%, 33.808899%, 44.137573%)" offset="0.152344"/><stop stop-opacity="1" stop-color="rgb(92.951965%, 33.802795%, 44.395447%)" offset="0.15625"/><stop stop-opacity="1" stop-color="rgb(92.774963%, 33.795166%, 44.65332%)" offset="0.160156"/><stop stop-opacity="1" stop-color="rgb(92.599487%, 33.787537%, 44.911194%)" offset="0.164063"/><stop stop-opacity="1" stop-color="rgb(92.422485%, 33.779907%, 45.167542%)" offset="0.167969"/><stop stop-opacity="1" stop-color="rgb(92.247009%, 33.772278%, 45.425415%)" offset="0.171875"/><stop stop-opacity="1" stop-color="rgb(92.071533%, 33.764648%, 45.683289%)" offset="0.175781"/><stop stop-opacity="1" stop-color="rgb(91.896057%, 33.758545%, 45.941162%)" offset="0.179688"/><stop stop-opacity="1" stop-color="rgb(91.719055%, 33.750916%, 46.19751%)" offset="0.183594"/><stop stop-opacity="1" stop-color="rgb(91.543579%, 33.743286%, 46.455383%)" offset="0.1875"/><stop stop-opacity="1" stop-color="rgb(91.366577%, 33.735657%, 46.711731%)" offset="0.191406"/><stop stop-opacity="1" stop-color="rgb(91.191101%, 33.728027%, 46.969604%)" offset="0.195312"/><stop stop-opacity="1" stop-color="rgb(91.014099%, 33.720398%, 47.227478%)" offset="0.199219"/><stop stop-opacity="1" stop-color="rgb(90.838623%, 33.712769%, 47.485352%)" offset="0.203125"/><stop stop-opacity="1" stop-color="rgb(90.661621%, 33.705139%, 47.741699%)" offset="0.207031"/><stop stop-opacity="1" stop-color="rgb(90.486145%, 33.699036%, 47.999573%)" offset="0.210938"/><stop stop-opacity="1" stop-color="rgb(90.309143%, 33.691406%, 48.257446%)" offset="0.214844"/><stop stop-opacity="1" stop-color="rgb(90.133667%, 33.683777%, 48.51532%)" offset="0.21875"/><stop stop-opacity="1" stop-color="rgb(89.956665%, 33.676147%, 48.771667%)" offset="0.222656"/><stop stop-opacity="1" stop-color="rgb(89.781189%, 33.668518%, 49.029541%)" offset="0.226562"/><stop stop-opacity="1" stop-color="rgb(89.604187%, 33.660889%, 49.287415%)" offset="0.230469"/><stop stop-opacity="1" stop-color="rgb(89.428711%, 33.653259%, 49.545288%)" offset="0.234375"/><stop stop-opacity="1" stop-color="rgb(89.251709%, 33.64563%, 49.801636%)" offset="0.238281"/><stop stop-opacity="1" stop-color="rgb(89.076233%, 33.639526%, 50.059509%)" offset="0.242188"/><stop stop-opacity="1" stop-color="rgb(88.899231%, 33.631897%, 50.315857%)" offset="0.246094"/><stop stop-opacity="1" stop-color="rgb(88.723755%, 33.624268%, 50.57373%)" offset="0.25"/><stop stop-opacity="1" stop-color="rgb(88.546753%, 33.616638%, 50.831604%)" offset="0.253906"/><stop stop-opacity="1" stop-color="rgb(88.371277%, 33.609009%, 51.089478%)" offset="0.257812"/><stop stop-opacity="1" stop-color="rgb(88.194275%, 33.601379%, 51.345825%)" offset="0.261719"/><stop stop-opacity="1" stop-color="rgb(88.018799%, 33.595276%, 51.603699%)" offset="0.265625"/><stop stop-opacity="1" stop-color="rgb(87.843323%, 33.587646%, 51.861572%)" offset="0.269531"/><stop stop-opacity="1" stop-color="rgb(87.667847%, 33.580017%, 52.119446%)" offset="0.273438"/><stop stop-opacity="1" stop-color="rgb(87.490845%, 33.572388%, 52.375793%)" offset="0.277344"/><stop stop-opacity="1" stop-color="rgb(87.315369%, 33.564758%, 52.633667%)" offset="0.28125"/><stop stop-opacity="1" stop-color="rgb(87.138367%, 33.557129%, 52.890015%)" offset="0.285156"/><stop stop-opacity="1" stop-color="rgb(86.962891%, 33.5495%, 53.147888%)" offset="0.289062"/><stop stop-opacity="1" stop-color="rgb(86.785889%, 33.54187%, 53.405762%)" offset="0.292969"/><stop stop-opacity="1" stop-color="rgb(86.610413%, 33.535767%, 53.663635%)" offset="0.296875"/><stop stop-opacity="1" stop-color="rgb(86.433411%, 33.528137%, 53.919983%)" offset="0.300781"/><stop stop-opacity="1" stop-color="rgb(86.257935%, 33.520508%, 54.177856%)" offset="0.304688"/><stop stop-opacity="1" stop-color="rgb(86.080933%, 33.512878%, 54.43573%)" offset="0.308594"/><stop stop-opacity="1" stop-color="rgb(85.905457%, 33.505249%, 54.693604%)" offset="0.3125"/><stop stop-opacity="1" stop-color="rgb(85.728455%, 33.49762%, 54.949951%)" offset="0.316406"/><stop stop-opacity="1" stop-color="rgb(85.552979%, 33.48999%, 55.207825%)" offset="0.320312"/><stop stop-opacity="1" stop-color="rgb(85.375977%, 33.482361%, 55.464172%)" offset="0.324219"/><stop stop-opacity="1" stop-color="rgb(85.2005%, 33.476257%, 55.722046%)" offset="0.328125"/><stop stop-opacity="1" stop-color="rgb(85.023499%, 33.468628%, 55.979919%)" offset="0.332031"/><stop stop-opacity="1" stop-color="rgb(84.848022%, 33.460999%, 56.237793%)" offset="0.335938"/><stop stop-opacity="1" stop-color="rgb(84.671021%, 33.453369%, 56.494141%)" offset="0.339844"/><stop stop-opacity="1" stop-color="rgb(84.495544%, 33.44574%, 56.752014%)" offset="0.34375"/><stop stop-opacity="1" stop-color="rgb(84.318542%, 33.43811%, 57.009888%)" offset="0.347656"/><stop stop-opacity="1" stop-color="rgb(84.143066%, 33.432007%, 57.267761%)" offset="0.351562"/><stop stop-opacity="1" stop-color="rgb(83.96759%, 33.424377%, 57.524109%)" offset="0.355469"/><stop stop-opacity="1" stop-color="rgb(83.792114%, 33.416748%, 57.781982%)" offset="0.359375"/><stop stop-opacity="1" stop-color="rgb(83.615112%, 33.409119%, 58.03833%)" offset="0.363281"/><stop stop-opacity="1" stop-color="rgb(83.439636%, 33.401489%, 58.296204%)" offset="0.367188"/><stop stop-opacity="1" stop-color="rgb(83.262634%, 33.39386%, 58.554077%)" offset="0.371094"/><stop stop-opacity="1" stop-color="rgb(83.087158%, 33.38623%, 58.811951%)" offset="0.375"/><stop stop-opacity="1" stop-color="rgb(82.910156%, 33.378601%, 59.068298%)" offset="0.378906"/><stop stop-opacity="1" stop-color="rgb(82.73468%, 33.372498%, 59.326172%)" offset="0.382812"/><stop stop-opacity="1" stop-color="rgb(82.557678%, 33.364868%, 59.584045%)" offset="0.386719"/><stop stop-opacity="1" stop-color="rgb(82.382202%, 33.357239%, 59.841919%)" offset="0.390625"/><stop stop-opacity="1" stop-color="rgb(82.2052%, 33.349609%, 60.098267%)" offset="0.394531"/><stop stop-opacity="1" stop-color="rgb(82.029724%, 33.34198%, 60.35614%)" offset="0.398438"/><stop stop-opacity="1" stop-color="rgb(81.852722%, 33.334351%, 60.612488%)" offset="0.402344"/><stop stop-opacity="1" stop-color="rgb(81.677246%, 33.326721%, 60.870361%)" offset="0.40625"/><stop stop-opacity="1" stop-color="rgb(81.500244%, 33.319092%, 61.128235%)" offset="0.410156"/><stop stop-opacity="1" stop-color="rgb(81.324768%, 33.312988%, 61.386108%)" offset="0.414062"/><stop stop-opacity="1" stop-color="rgb(81.147766%, 33.305359%, 61.642456%)" offset="0.417969"/><stop stop-opacity="1" stop-color="rgb(80.97229%, 33.297729%, 61.90033%)" offset="0.421875"/><stop stop-opacity="1" stop-color="rgb(80.795288%, 33.2901%, 62.158203%)" offset="0.425781"/><stop stop-opacity="1" stop-color="rgb(80.619812%, 33.282471%, 62.416077%)" offset="0.429688"/><stop stop-opacity="1" stop-color="rgb(80.44281%, 33.274841%, 62.672424%)" offset="0.433594"/><stop stop-opacity="1" stop-color="rgb(80.267334%, 33.268738%, 62.930298%)" offset="0.4375"/><stop stop-opacity="1" stop-color="rgb(80.091858%, 33.261108%, 63.188171%)" offset="0.441406"/><stop stop-opacity="1" stop-color="rgb(79.916382%, 33.253479%, 63.446045%)" offset="0.445312"/><stop stop-opacity="1" stop-color="rgb(79.73938%, 33.24585%, 63.702393%)" offset="0.449219"/><stop stop-opacity="1" stop-color="rgb(79.563904%, 33.23822%, 63.960266%)" offset="0.453125"/><stop stop-opacity="1" stop-color="rgb(79.386902%, 33.230591%, 64.216614%)" offset="0.457031"/><stop stop-opacity="1" stop-color="rgb(79.211426%, 33.222961%, 64.474487%)" offset="0.460938"/><stop stop-opacity="1" stop-color="rgb(79.034424%, 33.215332%, 64.732361%)" offset="0.464844"/><stop stop-opacity="1" stop-color="rgb(78.858948%, 33.209229%, 64.990234%)" offset="0.46875"/><stop stop-opacity="1" stop-color="rgb(78.681946%, 33.201599%, 65.246582%)" offset="0.472656"/><stop stop-opacity="1" stop-color="rgb(78.50647%, 33.19397%, 65.504456%)" offset="0.476562"/><stop stop-opacity="1" stop-color="rgb(78.329468%, 33.18634%, 65.762329%)" offset="0.480469"/><stop stop-opacity="1" stop-color="rgb(78.153992%, 33.178711%, 66.020203%)" offset="0.484375"/><stop stop-opacity="1" stop-color="rgb(77.97699%, 33.171082%, 66.27655%)" offset="0.488281"/><stop stop-opacity="1" stop-color="rgb(77.801514%, 33.163452%, 66.534424%)" offset="0.492188"/><stop stop-opacity="1" stop-color="rgb(77.624512%, 33.155823%, 66.790771%)" offset="0.496094"/><stop stop-opacity="1" stop-color="rgb(77.449036%, 33.149719%, 67.048645%)" offset="0.5"/><stop stop-opacity="1" stop-color="rgb(77.272034%, 33.14209%, 67.306519%)" offset="0.503906"/><stop stop-opacity="1" stop-color="rgb(77.096558%, 33.13446%, 67.564392%)" offset="0.507812"/><stop stop-opacity="1" stop-color="rgb(76.919556%, 33.126831%, 67.82074%)" offset="0.511719"/><stop stop-opacity="1" stop-color="rgb(76.74408%, 33.119202%, 68.078613%)" offset="0.515625"/><stop stop-opacity="1" stop-color="rgb(76.567078%, 33.111572%, 68.336487%)" offset="0.519531"/><stop stop-opacity="1" stop-color="rgb(76.391602%, 33.105469%, 68.59436%)" offset="0.523438"/><stop stop-opacity="1" stop-color="rgb(76.2146%, 33.097839%, 68.850708%)" offset="0.527344"/><stop stop-opacity="1" stop-color="rgb(76.039124%, 33.09021%, 69.108582%)" offset="0.53125"/><stop stop-opacity="1" stop-color="rgb(75.863647%, 33.082581%, 69.364929%)" offset="0.535156"/><stop stop-opacity="1" stop-color="rgb(75.688171%, 33.074951%, 69.622803%)" offset="0.539063"/><stop stop-opacity="1" stop-color="rgb(75.511169%, 33.067322%, 69.880676%)" offset="0.542969"/><stop stop-opacity="1" stop-color="rgb(75.335693%, 33.059692%, 70.13855%)" offset="0.546875"/><stop stop-opacity="1" stop-color="rgb(75.158691%, 33.052063%, 70.394897%)" offset="0.550781"/><stop stop-opacity="1" stop-color="rgb(74.983215%, 33.045959%, 70.652771%)" offset="0.554688"/><stop stop-opacity="1" stop-color="rgb(74.806213%, 33.03833%, 70.910645%)" offset="0.558594"/><stop stop-opacity="1" stop-color="rgb(74.630737%, 33.030701%, 71.168518%)" offset="0.5625"/><stop stop-opacity="1" stop-color="rgb(74.453735%, 33.023071%, 71.424866%)" offset="0.566406"/><stop stop-opacity="1" stop-color="rgb(74.278259%, 33.015442%, 71.682739%)" offset="0.570313"/><stop stop-opacity="1" stop-color="rgb(74.101257%, 33.007812%, 71.939087%)" offset="0.574219"/><stop stop-opacity="1" stop-color="rgb(73.925781%, 33.000183%, 72.19696%)" offset="0.578125"/><stop stop-opacity="1" stop-color="rgb(73.748779%, 32.992554%, 72.454834%)" offset="0.582031"/><stop stop-opacity="1" stop-color="rgb(73.573303%, 32.98645%, 72.712708%)" offset="0.585938"/><stop stop-opacity="1" stop-color="rgb(73.396301%, 32.978821%, 72.969055%)" offset="0.589844"/><stop stop-opacity="1" stop-color="rgb(73.220825%, 32.971191%, 73.226929%)" offset="0.59375"/><stop stop-opacity="1" stop-color="rgb(73.043823%, 32.963562%, 73.484802%)" offset="0.597656"/><stop stop-opacity="1" stop-color="rgb(72.868347%, 32.955933%, 73.742676%)" offset="0.601563"/><stop stop-opacity="1" stop-color="rgb(72.691345%, 32.948303%, 73.999023%)" offset="0.605469"/><stop stop-opacity="1" stop-color="rgb(72.515869%, 32.940674%, 74.256897%)" offset="0.609375"/><stop stop-opacity="1" stop-color="rgb(72.338867%, 32.933044%, 74.514771%)" offset="0.613281"/><stop stop-opacity="1" stop-color="rgb(72.163391%, 32.926941%, 74.772644%)" offset="0.617188"/><stop stop-opacity="1" stop-color="rgb(71.987915%, 32.919312%, 75.028992%)" offset="0.621094"/><stop stop-opacity="1" stop-color="rgb(71.812439%, 32.911682%, 75.286865%)" offset="0.625"/><stop stop-opacity="1" stop-color="rgb(71.635437%, 32.904053%, 75.543213%)" offset="0.628906"/><stop stop-opacity="1" stop-color="rgb(71.459961%, 32.896423%, 75.801086%)" offset="0.632812"/><stop stop-opacity="1" stop-color="rgb(71.282959%, 32.888794%, 76.05896%)" offset="0.636719"/><stop stop-opacity="1" stop-color="rgb(71.107483%, 32.88269%, 76.316833%)" offset="0.640625"/><stop stop-opacity="1" stop-color="rgb(70.930481%, 32.875061%, 76.573181%)" offset="0.644531"/><stop stop-opacity="1" stop-color="rgb(70.755005%, 32.867432%, 76.831055%)" offset="0.648438"/><stop stop-opacity="1" stop-color="rgb(70.578003%, 32.859802%, 77.088928%)" offset="0.652344"/><stop stop-opacity="1" stop-color="rgb(70.402527%, 32.852173%, 77.346802%)" offset="0.65625"/><stop stop-opacity="1" stop-color="rgb(70.225525%, 32.844543%, 77.603149%)" offset="0.660156"/><stop stop-opacity="1" stop-color="rgb(70.050049%, 32.836914%, 77.861023%)" offset="0.664062"/><stop stop-opacity="1" stop-color="rgb(69.873047%, 32.829285%, 78.117371%)" offset="0.667969"/><stop stop-opacity="1" stop-color="rgb(69.697571%, 32.823181%, 78.375244%)" offset="0.671875"/><stop stop-opacity="1" stop-color="rgb(69.520569%, 32.815552%, 78.633118%)" offset="0.675781"/><stop stop-opacity="1" stop-color="rgb(69.345093%, 32.807922%, 78.890991%)" offset="0.679688"/><stop stop-opacity="1" stop-color="rgb(69.168091%, 32.800293%, 79.147339%)" offset="0.683594"/><stop stop-opacity="1" stop-color="rgb(68.992615%, 32.792664%, 79.405212%)" offset="0.6875"/><stop stop-opacity="1" stop-color="rgb(68.815613%, 32.785034%, 79.663086%)" offset="0.691406"/><stop stop-opacity="1" stop-color="rgb(68.640137%, 32.777405%, 79.920959%)" offset="0.695312"/><stop stop-opacity="1" stop-color="rgb(68.463135%, 32.769775%, 80.177307%)" offset="0.699219"/><stop stop-opacity="1" stop-color="rgb(68.287659%, 32.763672%, 80.435181%)" offset="0.703125"/><stop stop-opacity="1" stop-color="rgb(68.112183%, 32.756042%, 80.691528%)" offset="0.707031"/><stop stop-opacity="1" stop-color="rgb(67.936707%, 32.748413%, 80.949402%)" offset="0.710938"/><stop stop-opacity="1" stop-color="rgb(67.759705%, 32.740784%, 81.207275%)" offset="0.714844"/><stop stop-opacity="1" stop-color="rgb(67.584229%, 32.733154%, 81.465149%)" offset="0.71875"/><stop stop-opacity="1" stop-color="rgb(67.407227%, 32.725525%, 81.721497%)" offset="0.722656"/><stop stop-opacity="1" stop-color="rgb(67.23175%, 32.719421%, 81.97937%)" offset="0.726562"/><stop stop-opacity="1" stop-color="rgb(67.054749%, 32.711792%, 82.237244%)" offset="0.730469"/><stop stop-opacity="1" stop-color="rgb(66.879272%, 32.704163%, 82.495117%)" offset="0.734375"/><stop stop-opacity="1" stop-color="rgb(66.702271%, 32.696533%, 82.751465%)" offset="0.738281"/><stop stop-opacity="1" stop-color="rgb(66.526794%, 32.688904%, 83.009338%)" offset="0.742188"/><stop stop-opacity="1" stop-color="rgb(66.349792%, 32.681274%, 83.265686%)" offset="0.746094"/><stop stop-opacity="1" stop-color="rgb(66.174316%, 32.673645%, 83.52356%)" offset="0.75"/><stop stop-opacity="1" stop-color="rgb(65.997314%, 32.666016%, 83.781433%)" offset="0.753906"/><stop stop-opacity="1" stop-color="rgb(65.821838%, 32.659912%, 84.039307%)" offset="0.757812"/><stop stop-opacity="1" stop-color="rgb(65.644836%, 32.652283%, 84.295654%)" offset="0.761719"/><stop stop-opacity="1" stop-color="rgb(65.46936%, 32.644653%, 84.553528%)" offset="0.765625"/><stop stop-opacity="1" stop-color="rgb(65.292358%, 32.637024%, 84.811401%)" offset="0.769531"/><stop stop-opacity="1" stop-color="rgb(65.116882%, 32.629395%, 85.069275%)" offset="0.773438"/><stop stop-opacity="1" stop-color="rgb(64.93988%, 32.621765%, 85.325623%)" offset="0.777344"/><stop stop-opacity="1" stop-color="rgb(64.764404%, 32.614136%, 85.583496%)" offset="0.78125"/><stop stop-opacity="1" stop-color="rgb(64.587402%, 32.606506%, 85.839844%)" offset="0.785156"/><stop stop-opacity="1" stop-color="rgb(64.411926%, 32.600403%, 86.097717%)" offset="0.789062"/><stop stop-opacity="1" stop-color="rgb(64.234924%, 32.592773%, 86.355591%)" offset="0.792969"/><stop stop-opacity="1" stop-color="rgb(64.059448%, 32.585144%, 86.613464%)" offset="0.796875"/><stop stop-opacity="1" stop-color="rgb(63.883972%, 32.577515%, 86.869812%)" offset="0.800781"/><stop stop-opacity="1" stop-color="rgb(63.708496%, 32.569885%, 87.127686%)" offset="0.804688"/><stop stop-opacity="1" stop-color="rgb(63.531494%, 32.562256%, 87.385559%)" offset="0.808594"/><stop stop-opacity="1" stop-color="rgb(63.356018%, 32.556152%, 87.643433%)" offset="0.8125"/><stop stop-opacity="1" stop-color="rgb(63.179016%, 32.548523%, 87.89978%)" offset="0.816406"/><stop stop-opacity="1" stop-color="rgb(63.00354%, 32.540894%, 88.157654%)" offset="0.820312"/><stop stop-opacity="1" stop-color="rgb(62.826538%, 32.533264%, 88.415527%)" offset="0.824219"/><stop stop-opacity="1" stop-color="rgb(62.651062%, 32.525635%, 88.673401%)" offset="0.828125"/><stop stop-opacity="1" stop-color="rgb(62.47406%, 32.518005%, 88.929749%)" offset="0.832031"/><stop stop-opacity="1" stop-color="rgb(62.298584%, 32.510376%, 89.187622%)" offset="0.835938"/><stop stop-opacity="1" stop-color="rgb(62.121582%, 32.502747%, 89.44397%)" offset="0.839844"/><stop stop-opacity="1" stop-color="rgb(61.946106%, 32.496643%, 89.701843%)" offset="0.84375"/><stop stop-opacity="1" stop-color="rgb(61.769104%, 32.489014%, 89.959717%)" offset="0.847656"/><stop stop-opacity="1" stop-color="rgb(61.593628%, 32.481384%, 90.21759%)" offset="0.851562"/><stop stop-opacity="1" stop-color="rgb(61.416626%, 32.473755%, 90.473938%)" offset="0.855469"/><stop stop-opacity="1" stop-color="rgb(61.24115%, 32.466125%, 90.731812%)" offset="0.859375"/><stop stop-opacity="1" stop-color="rgb(61.064148%, 32.458496%, 90.989685%)" offset="0.863281"/><stop stop-opacity="1" stop-color="rgb(60.888672%, 32.450867%, 91.247559%)" offset="0.867188"/><stop stop-opacity="1" stop-color="rgb(60.71167%, 32.443237%, 91.503906%)" offset="0.871094"/><stop stop-opacity="1" stop-color="rgb(60.536194%, 32.437134%, 91.76178%)" offset="0.875"/><stop stop-opacity="1" stop-color="rgb(60.359192%, 32.429504%, 92.018127%)" offset="0.878906"/><stop stop-opacity="1" stop-color="rgb(60.183716%, 32.421875%, 92.276001%)" offset="0.882812"/><stop stop-opacity="1" stop-color="rgb(60.00824%, 32.414246%, 92.533875%)" offset="0.886719"/><stop stop-opacity="1" stop-color="rgb(59.832764%, 32.406616%, 92.791748%)" offset="0.890625"/><stop stop-opacity="1" stop-color="rgb(59.655762%, 32.398987%, 93.048096%)" offset="0.894531"/><stop stop-opacity="1" stop-color="rgb(59.480286%, 32.392883%, 93.305969%)" offset="0.898438"/><stop stop-opacity="1" stop-color="rgb(59.303284%, 32.385254%, 93.563843%)" offset="0.902344"/><stop stop-opacity="1" stop-color="rgb(59.127808%, 32.377625%, 93.821716%)" offset="0.90625"/><stop stop-opacity="1" stop-color="rgb(58.950806%, 32.369995%, 94.078064%)" offset="0.910156"/><stop stop-opacity="1" stop-color="rgb(58.77533%, 32.362366%, 94.335938%)" offset="0.914062"/><stop stop-opacity="1" stop-color="rgb(58.598328%, 32.354736%, 94.592285%)" offset="0.917969"/><stop stop-opacity="1" stop-color="rgb(58.422852%, 32.347107%, 94.850159%)" offset="0.921875"/><stop stop-opacity="1" stop-color="rgb(58.24585%, 32.339478%, 95.108032%)" offset="0.925781"/><stop stop-opacity="1" stop-color="rgb(58.070374%, 32.333374%, 95.365906%)" offset="0.929688"/><stop stop-opacity="1" stop-color="rgb(57.893372%, 32.325745%, 95.622253%)" offset="0.933594"/><stop stop-opacity="1" stop-color="rgb(57.717896%, 32.318115%, 95.880127%)" offset="0.9375"/><stop stop-opacity="1" stop-color="rgb(57.540894%, 32.310486%, 96.138%)" offset="0.941406"/><stop stop-opacity="1" stop-color="rgb(57.365417%, 32.302856%, 96.395874%)" offset="0.945312"/><stop stop-opacity="1" stop-color="rgb(57.188416%, 32.295227%, 96.652222%)" offset="0.949219"/><stop stop-opacity="1" stop-color="rgb(57.012939%, 32.287598%, 96.910095%)" offset="0.953125"/><stop stop-opacity="1" stop-color="rgb(56.835938%, 32.279968%, 97.166443%)" offset="0.957031"/><stop stop-opacity="1" stop-color="rgb(56.660461%, 32.273865%, 97.424316%)" offset="0.960938"/><stop stop-opacity="1" stop-color="rgb(56.483459%, 32.266235%, 97.68219%)" offset="0.964844"/><stop stop-opacity="1" stop-color="rgb(56.307983%, 32.258606%, 97.940063%)" offset="0.96875"/><stop stop-opacity="1" stop-color="rgb(56.130981%, 32.250977%, 98.196411%)" offset="0.972656"/><stop stop-opacity="1" stop-color="rgb(55.955505%, 32.243347%, 98.454285%)" offset="0.976562"/><stop stop-opacity="1" stop-color="rgb(55.780029%, 32.235718%, 98.712158%)" offset="0.980469"/><stop stop-opacity="1" stop-color="rgb(55.604553%, 32.229614%, 98.970032%)" offset="0.984375"/><stop stop-opacity="1" stop-color="rgb(55.427551%, 32.221985%, 99.226379%)" offset="0.988281"/><stop stop-opacity="1" stop-color="rgb(55.252075%, 32.214355%, 99.484253%)" offset="0.992188"/><stop stop-opacity="1" stop-color="rgb(55.075073%, 32.206726%, 99.742126%)" offset="0.996094"/><stop stop-opacity="1" stop-color="rgb(54.899597%, 32.199097%, 100%)" offset="1"/></linearGradient><clipPath id="0ec8d0f7f3"><path d="M 136.179688 88.886719 L 238.929688 88.886719 L 238.929688 219.386719 L 136.179688 219.386719 Z M 136.179688 88.886719 " clip-rule="nonzero"/></clipPath></defs><g clip-path="url(#d20975c5fa)"><g clip-path="url(#27fe7ddd4a)"><path fill="url(#4f2c7bd85b)" d="M 37.5 37.535156 L 37.5 337.496094 L 337.5 337.496094 L 337.5 37.535156 Z M 37.5 37.535156 " fill-rule="nonzero"/></g></g><g clip-path="url(#0ec8d0f7f3)"><path fill="#5e17eb" d="M 179.015625 203.738281 C 160.398438 200.503906 150.050781 187.832031 146.820312 182.914062 L 145.527344 180.972656 C 142.421875 180.195312 139.964844 181.101562 138.285156 183.6875 C 136.476562 181.488281 136.214844 179.035156 137.378906 176.316406 C 138.671875 173.601562 141.257812 171.921875 145.007812 171.273438 C 142.550781 166.488281 142.164062 162.480469 143.847656 159.375 C 145.660156 156.011719 149.148438 154.074219 150.183594 147.738281 C 152.382812 147.605469 153.933594 148.511719 154.707031 150.324219 C 155.484375 152.136719 155.742188 153.558594 155.484375 154.722656 L 156.128906 154.589844 C 158.976562 154.074219 167.507812 154.332031 165.957031 165.066406 C 164.535156 163.90625 163.242188 163.257812 161.949219 162.996094 C 158.976562 162.351562 156.90625 163.902344 155.484375 167.523438 C 153.804688 172.050781 154.320312 176.964844 157.035156 182.269531 C 161.300781 190.414062 169.1875 195.460938 180.828125 197.140625 C 180.824219 198.953125 180.179688 201.148438 179.015625 203.738281 Z M 231.128906 178.644531 L 229.835938 180.847656 C 228.15625 183.820312 224.015625 188.605469 218.84375 193.261719 C 213.800781 198.046875 205.265625 202.445312 196.472656 203.996094 C 195.183594 202.054688 194.535156 199.859375 194.535156 197.398438 C 200.355469 196.753906 205.269531 195.199219 209.40625 192.746094 C 216.128906 188.734375 220.011719 183.171875 220.914062 176.316406 C 221.691406 170.238281 220.011719 165.453125 215.871094 161.832031 C 210.441406 157.046875 203.070312 156.53125 193.632812 160.410156 C 190.140625 161.832031 188.070312 162.738281 187.683594 163.125 C 187.554688 162.867188 186.777344 162.222656 185.09375 161.054688 L 183.414062 159.894531 L 181.605469 158.859375 C 180.699219 158.34375 178.628906 157.179688 175.136719 155.496094 C 171.644531 153.6875 168.929688 152.132812 166.992188 150.96875 C 165.054688 149.679688 162.855469 147.996094 160.136719 145.925781 C 154.96875 141.660156 152.25 136.484375 151.734375 130.40625 C 149.019531 130.925781 146.820312 130.148438 145.269531 127.949219 C 143.71875 125.75 143.847656 123.550781 145.65625 121.351562 C 148.113281 123.941406 151.089844 122.902344 152.25 120.835938 C 152.898438 119.671875 154.0625 118.25 155.484375 116.4375 C 158.457031 112.816406 160.914062 109.195312 167.121094 105.960938 C 170.226562 104.28125 173.714844 103.117188 177.59375 102.46875 C 185.222656 101.046875 191.820312 101.179688 197.382812 102.597656 C 219.878906 108.679688 222.855469 128.726562 229.0625 122 C 230.875 123.808594 232.425781 130.277344 224.796875 132.21875 C 225.441406 134.417969 225.183594 137 224.019531 139.71875 C 222.859375 142.433594 222.46875 144.375 222.730469 145.539062 C 219.882812 145.023438 217.816406 141.53125 216.132812 140.496094 C 212.511719 142.4375 209.410156 142.4375 206.953125 140.496094 C 204.492188 138.554688 203.589844 136.230469 204.492188 133.769531 C 208.113281 135.191406 214.0625 135.710938 214.0625 127.949219 C 209.410156 129.890625 204.621094 127.820312 205.140625 122.128906 C 206.042969 122.515625 206.820312 122.515625 207.46875 122 C 208.890625 121.09375 209.28125 119.410156 208.371094 117.085938 C 206.953125 112.816406 202.550781 110.101562 195.183594 108.808594 C 190.398438 107.902344 185.355469 107.902344 180.054688 108.808594 C 174.492188 109.714844 170.097656 111.523438 166.992188 114.109375 C 164.015625 116.699219 162.984375 119.152344 163.628906 121.351562 C 164.148438 123.164062 165.4375 123.550781 167.378906 122.515625 C 168.414062 124.195312 168.15625 126.007812 166.605469 127.945312 C 165.054688 129.886719 162.855469 130.277344 159.878906 129.367188 C 160.785156 133.636719 163.628906 137.128906 168.414062 139.714844 C 173.195312 142.304688 177.59375 142.5625 181.605469 140.492188 L 181.605469 148.636719 C 181.214844 148.769531 180.183594 148.769531 178.757812 148.898438 C 177.335938 149.027344 176.429688 149.027344 176.300781 149.027344 C 180.308594 150.449219 184.058594 152.128906 187.550781 154.328125 C 191.558594 152.648438 195.695312 151.480469 199.964844 150.707031 C 196.085938 150.058594 194.015625 149.542969 193.628906 149.414062 L 193.628906 140.75 C 195.570312 142.171875 198.800781 143.59375 203.328125 145.015625 C 207.851562 146.4375 211.730469 147.863281 215.222656 149.15625 C 218.714844 150.320312 221.949219 152.648438 224.921875 155.882812 C 227.898438 159.113281 229.707031 163.253906 230.09375 168.296875 C 233.714844 168.425781 236.171875 169.847656 237.464844 172.5625 C 238.886719 175.28125 238.628906 178.257812 236.949219 181.359375 C 235.394531 178.644531 233.457031 177.742188 231.128906 178.644531 Z M 209.144531 219.386719 C 206.042969 219.386719 202.679688 218.222656 198.929688 216.023438 C 198.152344 217.1875 196.859375 218.222656 195.050781 219.386719 C 194.664062 217.707031 193.371094 215.765625 191.171875 213.695312 C 188.972656 211.625 187.808594 209.816406 187.550781 208.132812 C 187.421875 209.8125 186.257812 211.753906 184.058594 213.824219 C 181.988281 215.894531 180.695312 217.703125 180.050781 219.386719 C 178.757812 218.609375 177.464844 217.445312 176.171875 216.023438 C 172.164062 218.351562 168.800781 219.386719 165.828125 219.257812 C 163.496094 219.257812 161.558594 218.480469 159.878906 216.800781 C 158.328125 215.378906 157.9375 213.308594 158.714844 210.71875 C 159.617188 208.261719 161.300781 207.097656 163.886719 207.484375 C 166.988281 207.742188 166.730469 211.625 164.015625 211.625 C 163.238281 211.625 162.59375 211.367188 162.203125 210.847656 C 162.203125 211.496094 162.203125 212.140625 162.332031 212.65625 C 162.976562 215.503906 165.046875 216.410156 168.539062 215.246094 C 172.804688 213.824219 176.683594 210.71875 179.917969 205.671875 C 182.375 202.050781 183.152344 194.421875 183.28125 188.082031 C 183.410156 184.851562 183.410156 178.898438 183.410156 170.234375 L 183.410156 161.960938 C 184.832031 162.867188 187.289062 164.675781 187.675781 164.808594 L 191.8125 162.867188 L 191.8125 170.238281 C 191.8125 178.902344 191.8125 184.851562 191.945312 188.085938 C 192.074219 191.320312 192.332031 194.554688 192.847656 197.917969 C 193.363281 201.410156 194.269531 203.996094 195.433594 205.933594 L 198.152344 209.554688 C 201.902344 213.695312 205.523438 215.765625 209.011719 215.765625 C 211.859375 215.765625 213.152344 214.085938 213.019531 210.851562 C 212.375 211.886719 210.175781 212.015625 209.269531 210.59375 C 208.367188 209.429688 209.140625 207.617188 211.339844 207.488281 C 213.929688 207.101562 215.609375 208.265625 216.382812 210.722656 C 217.160156 213.308594 216.769531 215.378906 215.21875 216.800781 C 213.671875 218.480469 211.601562 219.386719 209.144531 219.386719 Z M 216.386719 97.421875 C 215.609375 99.878906 213.929688 100.914062 211.34375 100.785156 C 208.113281 100.527344 208.242188 96.644531 211.214844 96.644531 C 211.859375 96.644531 212.507812 96.90625 213.027344 97.421875 C 213.671875 95.222656 212.898438 93.800781 210.828125 93.152344 C 207.59375 91.992188 203.84375 93.542969 199.449219 97.808594 C 198.542969 98.714844 197.636719 99.621094 196.734375 100.785156 C 194.53125 100.269531 191.429688 100.007812 187.164062 100.007812 C 183.023438 100.007812 180.050781 100.269531 178.371094 100.65625 C 173.585938 94.835938 169.316406 92.25 165.308594 92.894531 C 163.238281 93.152344 162.207031 94.1875 162.078125 95.871094 C 161.945312 96.386719 162.078125 96.90625 162.207031 97.421875 C 162.722656 96.90625 163.367188 96.644531 164.015625 96.644531 C 166.734375 96.644531 167.121094 100.527344 163.886719 100.785156 C 161.300781 100.914062 159.621094 99.878906 158.71875 97.421875 C 157.941406 94.964844 158.328125 93.023438 159.878906 91.601562 C 161.558594 89.921875 163.5 89.140625 165.699219 89.140625 C 168.675781 89.011719 172.164062 90.046875 176.175781 92.375 C 176.691406 91.859375 178.632812 89.660156 180.054688 88.882812 C 180.441406 90.046875 181.605469 91.472656 183.675781 93.152344 C 185.746094 94.832031 187.035156 96.253906 187.683594 97.417969 C 188.328125 96.253906 189.621094 94.960938 191.5625 93.28125 C 193.5 91.601562 194.664062 90.046875 195.054688 88.882812 C 195.699219 89.269531 196.992188 90.433594 198.933594 92.375 C 202.8125 90.175781 206.300781 89.011719 209.40625 89.011719 C 211.863281 89.140625 213.800781 89.917969 215.226562 91.601562 C 216.773438 93.023438 217.160156 94.964844 216.386719 97.421875 Z M 191.816406 136.09375 L 191.816406 150.578125 C 190.523438 151.097656 189.101562 151.742188 187.679688 152.648438 L 183.414062 149.933594 L 183.414062 136.09375 C 183.285156 123.546875 182.765625 115.011719 181.992188 110.355469 C 185.742188 109.96875 189.363281 109.96875 193.113281 110.355469 C 192.207031 115.65625 191.816406 124.195312 191.816406 136.09375 Z M 191.816406 136.09375 " fill-opacity="1" fill-rule="nonzero"/></g><g fill="#ffffff" fill-opacity="1"><g transform="translate(75.688557, 265.370726)"><g><path d="M 2.59375 -7.609375 L 2.59375 -5.3125 L 5.40625 -5.3125 C 5.632812 -5.3125 5.820312 -5.238281 5.96875 -5.09375 C 6.125 -4.957031 6.203125 -4.773438 6.203125 -4.546875 C 6.203125 -4.359375 6.125 -4.191406 5.96875 -4.046875 C 5.820312 -3.898438 5.632812 -3.828125 5.40625 -3.828125 L 2.59375 -3.828125 L 2.59375 -0.796875 C 2.59375 -0.566406 2.515625 -0.375 2.359375 -0.21875 C 2.203125 -0.0703125 2.015625 0 1.796875 0 C 1.554688 0 1.359375 -0.0703125 1.203125 -0.21875 C 1.046875 -0.363281 0.96875 -0.554688 0.96875 -0.796875 L 0.96875 -8.3125 C 0.96875 -8.53125 1.046875 -8.710938 1.203125 -8.859375 C 1.359375 -9.015625 1.546875 -9.09375 1.765625 -9.09375 L 6 -9.09375 C 6.21875 -9.09375 6.398438 -9.019531 6.546875 -8.875 C 6.703125 -8.738281 6.78125 -8.554688 6.78125 -8.328125 C 6.78125 -8.140625 6.703125 -7.972656 6.546875 -7.828125 C 6.398438 -7.679688 6.21875 -7.609375 6 -7.609375 Z M 2.59375 -7.609375 "/></g></g></g><g fill="#ffffff" fill-opacity="1"><g transform="translate(88.166302, 265.370726)"><g><path d="M 4.453125 -7.078125 C 4.710938 -7.078125 4.929688 -7.003906 5.109375 -6.859375 C 5.285156 -6.710938 5.375 -6.539062 5.375 -6.34375 C 5.375 -6.070312 5.304688 -5.867188 5.171875 -5.734375 C 5.035156 -5.597656 4.875 -5.53125 4.6875 -5.53125 C 4.550781 -5.53125 4.398438 -5.5625 4.234375 -5.625 C 4.210938 -5.632812 4.15625 -5.648438 4.0625 -5.671875 C 3.96875 -5.703125 3.867188 -5.71875 3.765625 -5.71875 C 3.546875 -5.71875 3.332031 -5.644531 3.125 -5.5 C 2.914062 -5.363281 2.742188 -5.15625 2.609375 -4.875 C 2.472656 -4.59375 2.40625 -4.257812 2.40625 -3.875 L 2.40625 -0.796875 C 2.40625 -0.566406 2.332031 -0.375 2.1875 -0.21875 C 2.039062 -0.0703125 1.851562 0 1.625 0 C 1.394531 0 1.207031 -0.0703125 1.0625 -0.21875 C 0.914062 -0.375 0.84375 -0.566406 0.84375 -0.796875 L 0.84375 -6.15625 C 0.84375 -6.382812 0.914062 -6.570312 1.0625 -6.71875 C 1.207031 -6.875 1.394531 -6.953125 1.625 -6.953125 C 1.851562 -6.953125 2.039062 -6.875 2.1875 -6.71875 C 2.332031 -6.570312 2.40625 -6.382812 2.40625 -6.15625 L 2.40625 -6 C 2.601562 -6.351562 2.890625 -6.617188 3.265625 -6.796875 C 3.640625 -6.984375 4.035156 -7.078125 4.453125 -7.078125 Z M 4.453125 -7.078125 "/></g></g></g><g fill="#ffffff" fill-opacity="1"><g transform="translate(98.980558, 265.370726)"><g><path d="M 7.53125 -3.46875 C 7.53125 -2.78125 7.375 -2.160156 7.0625 -1.609375 C 6.75 -1.054688 6.320312 -0.628906 5.78125 -0.328125 C 5.238281 -0.0234375 4.640625 0.125 3.984375 0.125 C 3.328125 0.125 2.726562 -0.0234375 2.1875 -0.328125 C 1.65625 -0.628906 1.234375 -1.054688 0.921875 -1.609375 C 0.609375 -2.160156 0.453125 -2.78125 0.453125 -3.46875 C 0.453125 -4.164062 0.609375 -4.785156 0.921875 -5.328125 C 1.234375 -5.878906 1.65625 -6.304688 2.1875 -6.609375 C 2.726562 -6.921875 3.328125 -7.078125 3.984375 -7.078125 C 4.640625 -7.078125 5.238281 -6.921875 5.78125 -6.609375 C 6.320312 -6.304688 6.75 -5.878906 7.0625 -5.328125 C 7.375 -4.785156 7.53125 -4.164062 7.53125 -3.46875 Z M 5.96875 -3.46875 C 5.96875 -3.894531 5.878906 -4.273438 5.703125 -4.609375 C 5.523438 -4.941406 5.285156 -5.195312 4.984375 -5.375 C 4.679688 -5.5625 4.347656 -5.65625 3.984375 -5.65625 C 3.617188 -5.65625 3.285156 -5.5625 2.984375 -5.375 C 2.691406 -5.195312 2.457031 -4.941406 2.28125 -4.609375 C 2.101562 -4.273438 2.015625 -3.894531 2.015625 -3.46875 C 2.015625 -3.039062 2.101562 -2.660156 2.28125 -2.328125 C 2.457031 -2.003906 2.691406 -1.75 2.984375 -1.5625 C 3.285156 -1.382812 3.617188 -1.296875 3.984375 -1.296875 C 4.347656 -1.296875 4.679688 -1.382812 4.984375 -1.5625 C 5.285156 -1.75 5.523438 -2.003906 5.703125 -2.328125 C 5.878906 -2.660156 5.96875 -3.039062 5.96875 -3.46875 Z M 5.96875 -3.46875 "/></g></g></g><g fill="#ffffff" fill-opacity="1"><g transform="translate(112.134101, 265.370726)"><g><path d="M 4.5625 -7.078125 C 5.445312 -7.078125 6.054688 -6.816406 6.390625 -6.296875 C 6.734375 -5.773438 6.90625 -5.050781 6.90625 -4.125 L 6.90625 -0.796875 C 6.90625 -0.566406 6.832031 -0.375 6.6875 -0.21875 C 6.539062 -0.0703125 6.351562 0 6.125 0 C 5.894531 0 5.707031 -0.0703125 5.5625 -0.21875 C 5.414062 -0.375 5.34375 -0.566406 5.34375 -0.796875 L 5.34375 -4.125 C 5.34375 -4.601562 5.242188 -4.976562 5.046875 -5.25 C 4.847656 -5.519531 4.503906 -5.65625 4.015625 -5.65625 C 3.515625 -5.65625 3.117188 -5.507812 2.828125 -5.21875 C 2.546875 -4.925781 2.40625 -4.5625 2.40625 -4.125 L 2.40625 -0.796875 C 2.40625 -0.566406 2.332031 -0.375 2.1875 -0.21875 C 2.039062 -0.0703125 1.851562 0 1.625 0 C 1.394531 0 1.207031 -0.0703125 1.0625 -0.21875 C 0.914062 -0.375 0.84375 -0.566406 0.84375 -0.796875 L 0.84375 -6.15625 C 0.84375 -6.382812 0.914062 -6.570312 1.0625 -6.71875 C 1.207031 -6.875 1.394531 -6.953125 1.625 -6.953125 C 1.851562 -6.953125 2.039062 -6.875 2.1875 -6.71875 C 2.332031 -6.570312 2.40625 -6.382812 2.40625 -6.15625 L 2.40625 -5.9375 C 2.632812 -6.25 2.9375 -6.515625 3.3125 -6.734375 C 3.695312 -6.960938 4.113281 -7.078125 4.5625 -7.078125 Z M 4.5625 -7.078125 "/></g></g></g><g fill="#ffffff" fill-opacity="1"><g transform="translate(125.053714, 265.370726)"><g><path d="M 4.203125 -1.46875 C 4.316406 -1.46875 4.425781 -1.410156 4.53125 -1.296875 C 4.632812 -1.179688 4.6875 -1.023438 4.6875 -0.828125 C 4.6875 -0.597656 4.554688 -0.398438 4.296875 -0.234375 C 4.035156 -0.078125 3.75 0 3.4375 0 C 2.894531 0 2.4375 -0.113281 2.0625 -0.34375 C 1.695312 -0.570312 1.515625 -1.0625 1.515625 -1.8125 L 1.515625 -5.390625 L 0.921875 -5.390625 C 0.710938 -5.390625 0.535156 -5.457031 0.390625 -5.59375 C 0.253906 -5.738281 0.1875 -5.914062 0.1875 -6.125 C 0.1875 -6.320312 0.253906 -6.488281 0.390625 -6.625 C 0.535156 -6.757812 0.710938 -6.828125 0.921875 -6.828125 L 1.515625 -6.828125 L 1.515625 -7.65625 C 1.515625 -7.882812 1.585938 -8.070312 1.734375 -8.21875 C 1.890625 -8.375 2.082031 -8.453125 2.3125 -8.453125 C 2.53125 -8.453125 2.710938 -8.375 2.859375 -8.21875 C 3.003906 -8.070312 3.078125 -7.882812 3.078125 -7.65625 L 3.078125 -6.828125 L 4 -6.828125 C 4.207031 -6.828125 4.378906 -6.753906 4.515625 -6.609375 C 4.660156 -6.472656 4.734375 -6.300781 4.734375 -6.09375 C 4.734375 -5.894531 4.660156 -5.726562 4.515625 -5.59375 C 4.378906 -5.457031 4.207031 -5.390625 4 -5.390625 L 3.078125 -5.390625 L 3.078125 -1.875 C 3.078125 -1.6875 3.125 -1.550781 3.21875 -1.46875 C 3.3125 -1.394531 3.441406 -1.359375 3.609375 -1.359375 C 3.679688 -1.359375 3.78125 -1.375 3.90625 -1.40625 C 4.007812 -1.445312 4.109375 -1.46875 4.203125 -1.46875 Z M 4.203125 -1.46875 "/></g></g></g><g fill="#ffffff" fill-opacity="1"><g transform="translate(135.54307, 265.370726)"><g><path d="M 1.4375 -3.21875 C 1.21875 -3.21875 1.03125 -3.289062 0.875 -3.4375 C 0.726562 -3.582031 0.65625 -3.765625 0.65625 -3.984375 C 0.65625 -4.203125 0.726562 -4.382812 0.875 -4.53125 C 1.03125 -4.6875 1.21875 -4.765625 1.4375 -4.765625 L 3.703125 -4.765625 C 3.929688 -4.765625 4.117188 -4.6875 4.265625 -4.53125 C 4.421875 -4.375 4.5 -4.1875 4.5 -3.96875 C 4.5 -3.75 4.421875 -3.566406 4.265625 -3.421875 C 4.117188 -3.285156 3.929688 -3.21875 3.703125 -3.21875 Z M 1.4375 -3.21875 "/></g></g></g><g fill="#ffffff" fill-opacity="1"><g transform="translate(145.863477, 265.370726)"><g><path d="M 6.125 -1.5 C 6.351562 -1.5 6.539062 -1.421875 6.6875 -1.265625 C 6.84375 -1.117188 6.921875 -0.941406 6.921875 -0.734375 C 6.921875 -0.523438 6.84375 -0.347656 6.6875 -0.203125 C 6.539062 -0.0664062 6.351562 0 6.125 0 L 1.765625 0 C 1.546875 0 1.359375 -0.0703125 1.203125 -0.21875 C 1.046875 -0.375 0.96875 -0.566406 0.96875 -0.796875 L 0.96875 -8.3125 C 0.96875 -8.53125 1.046875 -8.710938 1.203125 -8.859375 C 1.359375 -9.015625 1.546875 -9.09375 1.765625 -9.09375 L 6.125 -9.09375 C 6.351562 -9.09375 6.539062 -9.019531 6.6875 -8.875 C 6.84375 -8.738281 6.921875 -8.554688 6.921875 -8.328125 C 6.921875 -8.117188 6.84375 -7.945312 6.6875 -7.8125 C 6.539062 -7.675781 6.351562 -7.609375 6.125 -7.609375 L 2.59375 -7.609375 L 2.59375 -5.390625 L 5.53125 -5.390625 C 5.757812 -5.390625 5.945312 -5.316406 6.09375 -5.171875 C 6.25 -5.035156 6.328125 -4.851562 6.328125 -4.625 C 6.328125 -4.40625 6.253906 -4.226562 6.109375 -4.09375 C 5.960938 -3.96875 5.769531 -3.90625 5.53125 -3.90625 L 2.59375 -3.90625 L 2.59375 -1.5 Z M 6.125 -1.5 "/></g></g></g><g fill="#ffffff" fill-opacity="1"><g transform="translate(158.471191, 265.370726)"><g><path d="M 4.5625 -7.078125 C 5.445312 -7.078125 6.054688 -6.816406 6.390625 -6.296875 C 6.734375 -5.773438 6.90625 -5.050781 6.90625 -4.125 L 6.90625 -0.796875 C 6.90625 -0.566406 6.832031 -0.375 6.6875 -0.21875 C 6.539062 -0.0703125 6.351562 0 6.125 0 C 5.894531 0 5.707031 -0.0703125 5.5625 -0.21875 C 5.414062 -0.375 5.34375 -0.566406 5.34375 -0.796875 L 5.34375 -4.125 C 5.34375 -4.601562 5.242188 -4.976562 5.046875 -5.25 C 4.847656 -5.519531 4.503906 -5.65625 4.015625 -5.65625 C 3.515625 -5.65625 3.117188 -5.507812 2.828125 -5.21875 C 2.546875 -4.925781 2.40625 -4.5625 2.40625 -4.125 L 2.40625 -0.796875 C 2.40625 -0.566406 2.332031 -0.375 2.1875 -0.21875 C 2.039062 -0.0703125 1.851562 0 1.625 0 C 1.394531 0 1.207031 -0.0703125 1.0625 -0.21875 C 0.914062 -0.375 0.84375 -0.566406 0.84375 -0.796875 L 0.84375 -6.15625 C 0.84375 -6.382812 0.914062 -6.570312 1.0625 -6.71875 C 1.207031 -6.875 1.394531 -6.953125 1.625 -6.953125 C 1.851562 -6.953125 2.039062 -6.875 2.1875 -6.71875 C 2.332031 -6.570312 2.40625 -6.382812 2.40625 -6.15625 L 2.40625 -5.9375 C 2.632812 -6.25 2.9375 -6.515625 3.3125 -6.734375 C 3.695312 -6.960938 4.113281 -7.078125 4.5625 -7.078125 Z M 4.5625 -7.078125 "/></g></g></g><g fill="#ffffff" fill-opacity="1"><g transform="translate(171.390804, 265.370726)"><g><path d="M 6.46875 -9.625 C 6.695312 -9.625 6.882812 -9.546875 7.03125 -9.390625 C 7.175781 -9.242188 7.25 -9.054688 7.25 -8.828125 L 7.25 -0.796875 C 7.25 -0.566406 7.175781 -0.375 7.03125 -0.21875 C 6.882812 -0.0703125 6.695312 0 6.46875 0 C 6.25 0 6.066406 -0.0703125 5.921875 -0.21875 C 5.773438 -0.363281 5.695312 -0.550781 5.6875 -0.78125 C 5.476562 -0.53125 5.1875 -0.316406 4.8125 -0.140625 C 4.445312 0.0351562 4.0625 0.125 3.65625 0.125 C 3.050781 0.125 2.503906 -0.0234375 2.015625 -0.328125 C 1.535156 -0.640625 1.15625 -1.066406 0.875 -1.609375 C 0.59375 -2.160156 0.453125 -2.78125 0.453125 -3.46875 C 0.453125 -4.164062 0.585938 -4.785156 0.859375 -5.328125 C 1.140625 -5.878906 1.519531 -6.304688 2 -6.609375 C 2.488281 -6.921875 3.019531 -7.078125 3.59375 -7.078125 C 4.007812 -7.078125 4.398438 -7 4.765625 -6.84375 C 5.128906 -6.695312 5.4375 -6.507812 5.6875 -6.28125 L 5.6875 -8.828125 C 5.6875 -9.054688 5.757812 -9.242188 5.90625 -9.390625 C 6.0625 -9.546875 6.25 -9.625 6.46875 -9.625 Z M 3.84375 -1.296875 C 4.40625 -1.296875 4.863281 -1.5 5.21875 -1.90625 C 5.582031 -2.320312 5.765625 -2.84375 5.765625 -3.46875 C 5.765625 -4.09375 5.582031 -4.613281 5.21875 -5.03125 C 4.863281 -5.445312 4.40625 -5.65625 3.84375 -5.65625 C 3.289062 -5.65625 2.835938 -5.445312 2.484375 -5.03125 C 2.128906 -4.613281 1.953125 -4.09375 1.953125 -3.46875 C 1.953125 -2.84375 2.125 -2.320312 2.46875 -1.90625 C 2.820312 -1.5 3.28125 -1.296875 3.84375 -1.296875 Z M 3.84375 -1.296875 "/></g></g></g><g fill="#ffffff" fill-opacity="1"><g transform="translate(184.66132, 265.370726)"><g/></g></g><g fill="#ffffff" fill-opacity="1"><g transform="translate(193.474197, 265.370726)"><g><path d="M 4.875 -9.09375 C 5.6875 -9.09375 6.382812 -8.890625 6.96875 -8.484375 C 7.5625 -8.085938 8.007812 -7.546875 8.3125 -6.859375 C 8.625 -6.171875 8.78125 -5.398438 8.78125 -4.546875 C 8.78125 -3.703125 8.625 -2.929688 8.3125 -2.234375 C 8.007812 -1.546875 7.5625 -1 6.96875 -0.59375 C 6.382812 -0.195312 5.6875 0 4.875 0 L 1.765625 0 C 1.546875 0 1.359375 -0.0703125 1.203125 -0.21875 C 1.046875 -0.375 0.96875 -0.566406 0.96875 -0.796875 L 0.96875 -8.3125 C 0.96875 -8.53125 1.046875 -8.710938 1.203125 -8.859375 C 1.359375 -9.015625 1.546875 -9.09375 1.765625 -9.09375 Z M 4.75 -1.5 C 5.53125 -1.5 6.113281 -1.785156 6.5 -2.359375 C 6.882812 -2.929688 7.078125 -3.660156 7.078125 -4.546875 C 7.078125 -5.429688 6.878906 -6.160156 6.484375 -6.734375 C 6.097656 -7.316406 5.519531 -7.609375 4.75 -7.609375 L 2.59375 -7.609375 L 2.59375 -1.5 Z M 4.75 -1.5 "/></g></g></g><g fill="#ffffff" fill-opacity="1"><g transform="translate(207.940341, 265.370726)"><g><path d="M 7.078125 -3.640625 C 7.078125 -3.429688 7 -3.257812 6.84375 -3.125 C 6.6875 -3 6.503906 -2.9375 6.296875 -2.9375 L 2 -2.9375 C 2.101562 -2.425781 2.34375 -2.023438 2.71875 -1.734375 C 3.09375 -1.441406 3.515625 -1.296875 3.984375 -1.296875 C 4.335938 -1.296875 4.613281 -1.328125 4.8125 -1.390625 C 5.007812 -1.460938 5.164062 -1.535156 5.28125 -1.609375 C 5.394531 -1.679688 5.476562 -1.726562 5.53125 -1.75 C 5.6875 -1.832031 5.832031 -1.875 5.96875 -1.875 C 6.144531 -1.875 6.296875 -1.804688 6.421875 -1.671875 C 6.554688 -1.546875 6.625 -1.394531 6.625 -1.21875 C 6.625 -0.988281 6.503906 -0.773438 6.265625 -0.578125 C 6.023438 -0.378906 5.703125 -0.210938 5.296875 -0.078125 C 4.890625 0.0546875 4.476562 0.125 4.0625 0.125 C 3.332031 0.125 2.695312 -0.0234375 2.15625 -0.328125 C 1.613281 -0.628906 1.191406 -1.046875 0.890625 -1.578125 C 0.597656 -2.109375 0.453125 -2.707031 0.453125 -3.375 C 0.453125 -4.125 0.609375 -4.78125 0.921875 -5.34375 C 1.234375 -5.90625 1.644531 -6.332031 2.15625 -6.625 C 2.664062 -6.925781 3.210938 -7.078125 3.796875 -7.078125 C 4.367188 -7.078125 4.90625 -6.921875 5.40625 -6.609375 C 5.914062 -6.304688 6.320312 -5.890625 6.625 -5.359375 C 6.925781 -4.828125 7.078125 -4.253906 7.078125 -3.640625 Z M 3.796875 -5.65625 C 2.785156 -5.65625 2.191406 -5.179688 2.015625 -4.234375 L 5.421875 -4.234375 L 5.421875 -4.328125 C 5.390625 -4.691406 5.210938 -5.003906 4.890625 -5.265625 C 4.566406 -5.523438 4.203125 -5.65625 3.796875 -5.65625 Z M 3.796875 -5.65625 "/></g></g></g><g fill="#ffffff" fill-opacity="1"><g transform="translate(220.652014, 265.370726)"><g><path d="M 6.1875 -6.9375 C 6.394531 -6.9375 6.566406 -6.867188 6.703125 -6.734375 C 6.847656 -6.597656 6.921875 -6.429688 6.921875 -6.234375 C 6.921875 -6.128906 6.882812 -6 6.8125 -5.84375 L 4.375 -0.5 C 4.320312 -0.34375 4.234375 -0.222656 4.109375 -0.140625 C 3.992188 -0.0546875 3.863281 -0.0078125 3.71875 0 L 3.59375 0.015625 C 3.445312 0.015625 3.3125 -0.03125 3.1875 -0.125 C 3.0625 -0.21875 2.96875 -0.34375 2.90625 -0.5 L 0.484375 -5.84375 C 0.421875 -5.988281 0.390625 -6.128906 0.390625 -6.265625 C 0.390625 -6.441406 0.460938 -6.597656 0.609375 -6.734375 C 0.753906 -6.878906 0.9375 -6.953125 1.15625 -6.953125 C 1.320312 -6.953125 1.472656 -6.90625 1.609375 -6.8125 C 1.742188 -6.726562 1.847656 -6.613281 1.921875 -6.46875 L 3.71875 -2.359375 L 5.5 -6.453125 C 5.570312 -6.609375 5.664062 -6.726562 5.78125 -6.8125 C 5.90625 -6.90625 6.039062 -6.945312 6.1875 -6.9375 Z M 6.1875 -6.9375 "/></g></g></g><g fill="#ffffff" fill-opacity="1"><g transform="translate(233.129758, 265.370726)"><g><path d="M 7.078125 -3.640625 C 7.078125 -3.429688 7 -3.257812 6.84375 -3.125 C 6.6875 -3 6.503906 -2.9375 6.296875 -2.9375 L 2 -2.9375 C 2.101562 -2.425781 2.34375 -2.023438 2.71875 -1.734375 C 3.09375 -1.441406 3.515625 -1.296875 3.984375 -1.296875 C 4.335938 -1.296875 4.613281 -1.328125 4.8125 -1.390625 C 5.007812 -1.460938 5.164062 -1.535156 5.28125 -1.609375 C 5.394531 -1.679688 5.476562 -1.726562 5.53125 -1.75 C 5.6875 -1.832031 5.832031 -1.875 5.96875 -1.875 C 6.144531 -1.875 6.296875 -1.804688 6.421875 -1.671875 C 6.554688 -1.546875 6.625 -1.394531 6.625 -1.21875 C 6.625 -0.988281 6.503906 -0.773438 6.265625 -0.578125 C 6.023438 -0.378906 5.703125 -0.210938 5.296875 -0.078125 C 4.890625 0.0546875 4.476562 0.125 4.0625 0.125 C 3.332031 0.125 2.695312 -0.0234375 2.15625 -0.328125 C 1.613281 -0.628906 1.191406 -1.046875 0.890625 -1.578125 C 0.597656 -2.109375 0.453125 -2.707031 0.453125 -3.375 C 0.453125 -4.125 0.609375 -4.78125 0.921875 -5.34375 C 1.234375 -5.90625 1.644531 -6.332031 2.15625 -6.625 C 2.664062 -6.925781 3.210938 -7.078125 3.796875 -7.078125 C 4.367188 -7.078125 4.90625 -6.921875 5.40625 -6.609375 C 5.914062 -6.304688 6.320312 -5.890625 6.625 -5.359375 C 6.925781 -4.828125 7.078125 -4.253906 7.078125 -3.640625 Z M 3.796875 -5.65625 C 2.785156 -5.65625 2.191406 -5.179688 2.015625 -4.234375 L 5.421875 -4.234375 L 5.421875 -4.328125 C 5.390625 -4.691406 5.210938 -5.003906 4.890625 -5.265625 C 4.566406 -5.523438 4.203125 -5.65625 3.796875 -5.65625 Z M 3.796875 -5.65625 "/></g></g></g><g fill="#ffffff" fill-opacity="1"><g transform="translate(245.841431, 265.370726)"><g><path d="M 2.53125 -0.796875 C 2.53125 -0.566406 2.453125 -0.375 2.296875 -0.21875 C 2.148438 -0.0703125 1.960938 0 1.734375 0 C 1.523438 0 1.34375 -0.0703125 1.1875 -0.21875 C 1.039062 -0.375 0.96875 -0.566406 0.96875 -0.796875 L 0.96875 -8.828125 C 0.96875 -9.054688 1.046875 -9.242188 1.203125 -9.390625 C 1.359375 -9.546875 1.546875 -9.625 1.765625 -9.625 C 1.984375 -9.625 2.164062 -9.546875 2.3125 -9.390625 C 2.457031 -9.242188 2.53125 -9.054688 2.53125 -8.828125 Z M 2.53125 -0.796875 "/></g></g></g><g fill="#ffffff" fill-opacity="1"><g transform="translate(254.524349, 265.370726)"><g><path d="M 7.53125 -3.46875 C 7.53125 -2.78125 7.375 -2.160156 7.0625 -1.609375 C 6.75 -1.054688 6.320312 -0.628906 5.78125 -0.328125 C 5.238281 -0.0234375 4.640625 0.125 3.984375 0.125 C 3.328125 0.125 2.726562 -0.0234375 2.1875 -0.328125 C 1.65625 -0.628906 1.234375 -1.054688 0.921875 -1.609375 C 0.609375 -2.160156 0.453125 -2.78125 0.453125 -3.46875 C 0.453125 -4.164062 0.609375 -4.785156 0.921875 -5.328125 C 1.234375 -5.878906 1.65625 -6.304688 2.1875 -6.609375 C 2.726562 -6.921875 3.328125 -7.078125 3.984375 -7.078125 C 4.640625 -7.078125 5.238281 -6.921875 5.78125 -6.609375 C 6.320312 -6.304688 6.75 -5.878906 7.0625 -5.328125 C 7.375 -4.785156 7.53125 -4.164062 7.53125 -3.46875 Z M 5.96875 -3.46875 C 5.96875 -3.894531 5.878906 -4.273438 5.703125 -4.609375 C 5.523438 -4.941406 5.285156 -5.195312 4.984375 -5.375 C 4.679688 -5.5625 4.347656 -5.65625 3.984375 -5.65625 C 3.617188 -5.65625 3.285156 -5.5625 2.984375 -5.375 C 2.691406 -5.195312 2.457031 -4.941406 2.28125 -4.609375 C 2.101562 -4.273438 2.015625 -3.894531 2.015625 -3.46875 C 2.015625 -3.039062 2.101562 -2.660156 2.28125 -2.328125 C 2.457031 -2.003906 2.691406 -1.75 2.984375 -1.5625 C 3.285156 -1.382812 3.617188 -1.296875 3.984375 -1.296875 C 4.347656 -1.296875 4.679688 -1.382812 4.984375 -1.5625 C 5.285156 -1.75 5.523438 -2.003906 5.703125 -2.328125 C 5.878906 -2.660156 5.96875 -3.039062 5.96875 -3.46875 Z M 5.96875 -3.46875 "/></g></g></g><g fill="#ffffff" fill-opacity="1"><g transform="translate(267.677889, 265.370726)"><g><path d="M 4.453125 -7.078125 C 5.046875 -7.078125 5.582031 -6.921875 6.0625 -6.609375 C 6.550781 -6.304688 6.9375 -5.882812 7.21875 -5.34375 C 7.5 -4.800781 7.640625 -4.179688 7.640625 -3.484375 C 7.640625 -2.785156 7.5 -2.160156 7.21875 -1.609375 C 6.945312 -1.066406 6.570312 -0.640625 6.09375 -0.328125 C 5.613281 -0.0234375 5.082031 0.125 4.5 0.125 C 4.082031 0.125 3.6875 0.0390625 3.3125 -0.125 C 2.945312 -0.289062 2.644531 -0.492188 2.40625 -0.734375 L 2.40625 1.8125 C 2.40625 2.03125 2.332031 2.210938 2.1875 2.359375 C 2.039062 2.515625 1.851562 2.59375 1.625 2.59375 C 1.394531 2.59375 1.207031 2.519531 1.0625 2.375 C 0.914062 2.226562 0.84375 2.039062 0.84375 1.8125 L 0.84375 -6.15625 C 0.84375 -6.382812 0.914062 -6.570312 1.0625 -6.71875 C 1.207031 -6.875 1.394531 -6.953125 1.625 -6.953125 C 1.851562 -6.953125 2.039062 -6.875 2.1875 -6.71875 C 2.332031 -6.570312 2.40625 -6.382812 2.40625 -6.15625 L 2.40625 -6.109375 C 2.613281 -6.367188 2.898438 -6.59375 3.265625 -6.78125 C 3.640625 -6.976562 4.035156 -7.078125 4.453125 -7.078125 Z M 4.25 -1.296875 C 4.800781 -1.296875 5.253906 -1.503906 5.609375 -1.921875 C 5.972656 -2.335938 6.15625 -2.859375 6.15625 -3.484375 C 6.15625 -4.109375 5.976562 -4.625 5.625 -5.03125 C 5.269531 -5.445312 4.8125 -5.65625 4.25 -5.65625 C 3.6875 -5.65625 3.226562 -5.445312 2.875 -5.03125 C 2.519531 -4.625 2.34375 -4.109375 2.34375 -3.484375 C 2.34375 -2.859375 2.519531 -2.335938 2.875 -1.921875 C 3.226562 -1.503906 3.6875 -1.296875 4.25 -1.296875 Z M 4.25 -1.296875 "/></g></g></g><g fill="#ffffff" fill-opacity="1"><g transform="translate(280.9484, 265.370726)"><g><path d="M 7.078125 -3.640625 C 7.078125 -3.429688 7 -3.257812 6.84375 -3.125 C 6.6875 -3 6.503906 -2.9375 6.296875 -2.9375 L 2 -2.9375 C 2.101562 -2.425781 2.34375 -2.023438 2.71875 -1.734375 C 3.09375 -1.441406 3.515625 -1.296875 3.984375 -1.296875 C 4.335938 -1.296875 4.613281 -1.328125 4.8125 -1.390625 C 5.007812 -1.460938 5.164062 -1.535156 5.28125 -1.609375 C 5.394531 -1.679688 5.476562 -1.726562 5.53125 -1.75 C 5.6875 -1.832031 5.832031 -1.875 5.96875 -1.875 C 6.144531 -1.875 6.296875 -1.804688 6.421875 -1.671875 C 6.554688 -1.546875 6.625 -1.394531 6.625 -1.21875 C 6.625 -0.988281 6.503906 -0.773438 6.265625 -0.578125 C 6.023438 -0.378906 5.703125 -0.210938 5.296875 -0.078125 C 4.890625 0.0546875 4.476562 0.125 4.0625 0.125 C 3.332031 0.125 2.695312 -0.0234375 2.15625 -0.328125 C 1.613281 -0.628906 1.191406 -1.046875 0.890625 -1.578125 C 0.597656 -2.109375 0.453125 -2.707031 0.453125 -3.375 C 0.453125 -4.125 0.609375 -4.78125 0.921875 -5.34375 C 1.234375 -5.90625 1.644531 -6.332031 2.15625 -6.625 C 2.664062 -6.925781 3.210938 -7.078125 3.796875 -7.078125 C 4.367188 -7.078125 4.90625 -6.921875 5.40625 -6.609375 C 5.914062 -6.304688 6.320312 -5.890625 6.625 -5.359375 C 6.925781 -4.828125 7.078125 -4.253906 7.078125 -3.640625 Z M 3.796875 -5.65625 C 2.785156 -5.65625 2.191406 -5.179688 2.015625 -4.234375 L 5.421875 -4.234375 L 5.421875 -4.328125 C 5.390625 -4.691406 5.210938 -5.003906 4.890625 -5.265625 C 4.566406 -5.523438 4.203125 -5.65625 3.796875 -5.65625 Z M 3.796875 -5.65625 "/></g></g></g><g fill="#ffffff" fill-opacity="1"><g transform="translate(293.660085, 265.370726)"><g><path d="M 4.453125 -7.078125 C 4.710938 -7.078125 4.929688 -7.003906 5.109375 -6.859375 C 5.285156 -6.710938 5.375 -6.539062 5.375 -6.34375 C 5.375 -6.070312 5.304688 -5.867188 5.171875 -5.734375 C 5.035156 -5.597656 4.875 -5.53125 4.6875 -5.53125 C 4.550781 -5.53125 4.398438 -5.5625 4.234375 -5.625 C 4.210938 -5.632812 4.15625 -5.648438 4.0625 -5.671875 C 3.96875 -5.703125 3.867188 -5.71875 3.765625 -5.71875 C 3.546875 -5.71875 3.332031 -5.644531 3.125 -5.5 C 2.914062 -5.363281 2.742188 -5.15625 2.609375 -4.875 C 2.472656 -4.59375 2.40625 -4.257812 2.40625 -3.875 L 2.40625 -0.796875 C 2.40625 -0.566406 2.332031 -0.375 2.1875 -0.21875 C 2.039062 -0.0703125 1.851562 0 1.625 0 C 1.394531 0 1.207031 -0.0703125 1.0625 -0.21875 C 0.914062 -0.375 0.84375 -0.566406 0.84375 -0.796875 L 0.84375 -6.15625 C 0.84375 -6.382812 0.914062 -6.570312 1.0625 -6.71875 C 1.207031 -6.875 1.394531 -6.953125 1.625 -6.953125 C 1.851562 -6.953125 2.039062 -6.875 2.1875 -6.71875 C 2.332031 -6.570312 2.40625 -6.382812 2.40625 -6.15625 L 2.40625 -6 C 2.601562 -6.351562 2.890625 -6.617188 3.265625 -6.796875 C 3.640625 -6.984375 4.035156 -7.078125 4.453125 -7.078125 Z M 4.453125 -7.078125 "/></g></g></g><g fill="#d9d9d9" fill-opacity="1"><g transform="translate(97.317127, 244.820756)"><g><path d="M 4.292969 -0.753906 C 5.480469 -0.78125 6.582031 -0.78125 7.160156 -0.8125 C 7.539062 -0.839844 7.710938 -1.042969 7.710938 -1.421875 C 7.683594 -1.738281 7.480469 -1.972656 7.160156 -1.972656 L 7.105469 -1.972656 C 6.554688 -1.941406 5.449219 -1.941406 4.292969 -1.914062 C 4.40625 -9.132812 4.203125 -6.351562 5.25 -19.195312 C 6.496094 -19.222656 7.625 -19.253906 8.351562 -19.339844 C 8.667969 -19.367188 8.871094 -19.570312 8.871094 -19.890625 L 8.871094 -19.949219 C 8.871094 -20.265625 8.582031 -20.5 8.261719 -20.5 C 7.597656 -20.414062 6.464844 -20.441406 5.335938 -20.355469 C 5.25 -20.671875 5.074219 -20.820312 4.753906 -20.820312 C 4.4375 -20.820312 4.261719 -20.617188 4.175781 -20.296875 C 3.015625 -20.265625 1.882812 -20.210938 1.1875 -20.179688 C 0.871094 -20.152344 0.636719 -19.917969 0.636719 -19.601562 L 0.636719 -19.542969 C 0.667969 -19.222656 0.898438 -19.019531 1.21875 -19.019531 L 1.246094 -19.019531 C 1.914062 -19.050781 2.957031 -19.109375 4.089844 -19.136719 C 3.042969 -6.4375 3.246094 -9.132812 3.132812 -1.914062 C 1.972656 -1.882812 0.929688 -1.882812 0.375 -1.855469 C 0.0585938 -1.828125 -0.175781 -1.625 -0.175781 -1.304688 L -0.175781 -1.246094 C -0.144531 -0.871094 0.0585938 -0.695312 0.40625 -0.695312 L 0.433594 -0.695312 C 0.984375 -0.726562 2 -0.726562 3.132812 -0.753906 L 3.132812 -0.578125 C 3.101562 -0.144531 3.390625 0 3.710938 0 C 3.972656 0 4.292969 -0.175781 4.292969 -0.550781 Z M 4.292969 -0.753906 "/></g></g></g><g fill="#d9d9d9" fill-opacity="1"><g transform="translate(108.856859, 244.820756)"><g><path d="M 3.914062 0.0273438 C 6.117188 0.0273438 7.335938 -1.683594 7.335938 -3.914062 C 7.335938 -4.929688 7.074219 -6.089844 6.523438 -7.21875 C 7.480469 -7.539062 8.699219 -7.710938 10.089844 -7.710938 C 10.4375 -7.710938 10.84375 -7.683594 11.222656 -7.65625 C 11.570312 -7.625 11.828125 -7.886719 11.828125 -8.234375 C 11.828125 -8.554688 11.628906 -8.785156 11.308594 -8.816406 C 10.875 -8.84375 10.46875 -8.871094 10.03125 -8.871094 C 8.410156 -8.871094 7.074219 -8.613281 5.945312 -8.261719 C 5.046875 -9.683594 3.886719 -10.902344 2.871094 -12.148438 C 1.914062 -13.394531 1.160156 -14.875 1.160156 -16.296875 C 1.160156 -17.195312 1.421875 -18.035156 2.117188 -18.730469 C 2.726562 -19.339844 3.390625 -19.628906 4.144531 -19.628906 C 5.683594 -19.628906 7.074219 -18.382812 7.480469 -16.585938 C 7.566406 -16.265625 7.769531 -16.121094 8.0625 -16.121094 L 8.175781 -16.121094 C 8.496094 -16.207031 8.640625 -16.410156 8.640625 -16.699219 L 8.640625 -16.816406 C 8.175781 -19.253906 6.175781 -20.789062 4.144531 -20.789062 C 3.132812 -20.789062 2.117188 -20.441406 1.277344 -19.542969 C 0.375 -18.613281 0 -17.484375 0 -16.324219 C 0 -14.671875 0.78125 -12.902344 1.941406 -11.425781 C 2.898438 -10.175781 4 -9.105469 4.84375 -7.859375 C 3.21875 -7.160156 1.390625 -5.914062 0.636719 -4.320312 C 0.40625 -3.828125 0.289062 -3.363281 0.289062 -2.957031 C 0.289062 -1.21875 1.972656 0.0273438 3.914062 0.0273438 Z M 5.046875 -1.449219 C 4.726562 -1.246094 4.320312 -1.160156 3.828125 -1.160156 C 2.667969 -1.160156 1.480469 -1.828125 1.480469 -2.957031 C 1.480469 -3.246094 1.535156 -3.539062 1.683594 -3.796875 C 2.378906 -5.191406 4 -6.261719 5.421875 -6.84375 C 5.855469 -5.945312 6.175781 -4.84375 6.175781 -3.828125 C 6.175781 -2.8125 5.855469 -1.914062 5.046875 -1.449219 Z M 5.046875 -1.449219 "/></g></g></g><g fill="#d9d9d9" fill-opacity="1"><g transform="translate(123.034878, 244.820756)"><g><path d="M 13.800781 2.234375 C 14.121094 2.234375 14.351562 2 14.382812 1.683594 C 14.640625 -3.566406 14.875 -7.335938 14.875 -10.496094 C 14.875 -13.25 14.730469 -15.484375 14.351562 -17.917969 C 14.035156 -19.890625 13.335938 -20.992188 12.292969 -20.992188 C 10.207031 -20.992188 8.84375 -16.035156 8.089844 -12.933594 C 7.945312 -12.324219 7.859375 -11.828125 7.769531 -11.425781 C 7.539062 -13.742188 7.132812 -17.890625 5.132812 -17.890625 C 2.957031 -17.890625 2.550781 -13.394531 1.160156 -5.742188 C 1.1875 -9.132812 1.507812 -13.742188 2.4375 -20.121094 C 2.464844 -20.441406 2.261719 -20.703125 1.941406 -20.789062 C 1.625 -20.820312 1.363281 -20.617188 1.277344 -20.296875 C 0.667969 -15.800781 0 -10.089844 0 -4.988281 C 0 -3.390625 0.0585938 -1.914062 0.203125 -0.523438 C 0.230469 -0.203125 0.433594 0 0.753906 0 C 1.074219 0 1.304688 -0.144531 1.332031 -0.464844 C 2.839844 -8.261719 3.972656 -16.730469 5.101562 -16.730469 C 6.351562 -16.730469 6.871094 -9.597656 6.871094 -5.652344 C 6.871094 -4.871094 6.84375 -4.234375 6.8125 -3.769531 C 6.785156 -3.421875 7.074219 -3.132812 7.421875 -3.132812 C 7.742188 -3.132812 7.945312 -3.335938 7.972656 -3.652344 C 8.902344 -14.640625 11.335938 -19.917969 12.292969 -19.832031 C 12.496094 -19.804688 12.960938 -19.398438 13.222656 -17.746094 C 13.570312 -15.425781 13.742188 -13.28125 13.742188 -10.582031 C 13.742188 -7.566406 13.539062 -3.855469 13.222656 1.625 C 13.191406 1.941406 13.425781 2.234375 13.742188 2.234375 Z M 13.800781 2.234375 "/></g></g></g><g fill="#d9d9d9" fill-opacity="1"><g transform="translate(142.460481, 244.820756)"><g><path d="M 1.566406 0 C 1.882812 0 2.117188 -0.261719 2.117188 -0.578125 C 2.03125 -2.058594 2.203125 -4.523438 2.550781 -7.308594 C 5.132812 -8.175781 6.726562 -8.582031 8.726562 -8.902344 L 8.726562 -7.710938 C 8.726562 -5.828125 8.699219 -3.886719 8.613281 -1.941406 C 8.613281 -1.566406 8.785156 -1.363281 9.164062 -1.332031 C 9.480469 -1.332031 9.769531 -1.566406 9.769531 -1.882812 C 9.859375 -3.769531 9.886719 -5.800781 9.886719 -7.800781 L 9.886719 -9.074219 L 11.308594 -9.25 C 11.628906 -9.277344 11.800781 -9.480469 11.800781 -9.800781 L 11.800781 -9.886719 C 11.773438 -10.207031 11.539062 -10.410156 11.222656 -10.410156 L 11.164062 -10.410156 L 9.859375 -10.234375 C 9.769531 -15.425781 9.714844 -19.804688 7.363281 -20.644531 C 7.074219 -20.730469 6.84375 -20.789062 6.640625 -20.789062 C 3.363281 -20.789062 1.941406 -12.121094 1.480469 -8.207031 C 0.984375 -8.003906 0.433594 -7.828125 -0.175781 -7.625 C -0.433594 -7.539062 -0.578125 -7.335938 -0.578125 -7.074219 C -0.578125 -6.988281 -0.578125 -6.929688 -0.550781 -6.902344 C -0.464844 -6.640625 -0.261719 -6.496094 0 -6.496094 L 0.0859375 -6.496094 C 0.203125 -6.496094 0.40625 -6.582031 1.332031 -6.929688 C 1.015625 -4.261719 0.929688 -1.941406 0.957031 -0.550781 C 0.957031 -0.230469 1.21875 0 1.535156 0 Z M 2.726562 -8.582031 C 3.074219 -11.019531 4.40625 -19.601562 6.667969 -19.601562 C 7.335938 -19.601562 7.828125 -18.933594 8.148438 -17.804688 C 8.464844 -16.671875 8.613281 -13.714844 8.699219 -10.089844 C 6.609375 -9.769531 5.046875 -9.308594 2.726562 -8.582031 Z M 2.726562 -8.582031 "/></g></g></g><g fill="#d9d9d9" fill-opacity="1"><g transform="translate(157.943149, 244.820756)"><g><path d="M 4.292969 -0.753906 C 5.480469 -0.78125 6.582031 -0.78125 7.160156 -0.8125 C 7.539062 -0.839844 7.710938 -1.042969 7.710938 -1.421875 C 7.683594 -1.738281 7.480469 -1.972656 7.160156 -1.972656 L 7.105469 -1.972656 C 6.554688 -1.941406 5.449219 -1.941406 4.292969 -1.914062 C 4.40625 -9.132812 4.203125 -6.351562 5.25 -19.195312 C 6.496094 -19.222656 7.625 -19.253906 8.351562 -19.339844 C 8.667969 -19.367188 8.871094 -19.570312 8.871094 -19.890625 L 8.871094 -19.949219 C 8.871094 -20.265625 8.582031 -20.5 8.261719 -20.5 C 7.597656 -20.414062 6.464844 -20.441406 5.335938 -20.355469 C 5.25 -20.671875 5.074219 -20.820312 4.753906 -20.820312 C 4.4375 -20.820312 4.261719 -20.617188 4.175781 -20.296875 C 3.015625 -20.265625 1.882812 -20.210938 1.1875 -20.179688 C 0.871094 -20.152344 0.636719 -19.917969 0.636719 -19.601562 L 0.636719 -19.542969 C 0.667969 -19.222656 0.898438 -19.019531 1.21875 -19.019531 L 1.246094 -19.019531 C 1.914062 -19.050781 2.957031 -19.109375 4.089844 -19.136719 C 3.042969 -6.4375 3.246094 -9.132812 3.132812 -1.914062 C 1.972656 -1.882812 0.929688 -1.882812 0.375 -1.855469 C 0.0585938 -1.828125 -0.175781 -1.625 -0.175781 -1.304688 L -0.175781 -1.246094 C -0.144531 -0.871094 0.0585938 -0.695312 0.40625 -0.695312 L 0.433594 -0.695312 C 0.984375 -0.726562 2 -0.726562 3.132812 -0.753906 L 3.132812 -0.578125 C 3.101562 -0.144531 3.390625 0 3.710938 0 C 3.972656 0 4.292969 -0.175781 4.292969 -0.550781 Z M 4.292969 -0.753906 "/></g></g></g><g fill="#d9d9d9" fill-opacity="1"><g transform="translate(169.482879, 244.820756)"><g><path d="M 17.484375 -1.246094 C 17.804688 -1.304688 17.949219 -1.480469 17.949219 -1.796875 L 17.949219 -1.914062 C 17.890625 -2.234375 17.714844 -2.378906 17.398438 -2.378906 L 17.28125 -2.378906 C 16.09375 -2.144531 14.875 -2.085938 13.6875 -2.085938 C 10.554688 -2.085938 7.453125 -2.609375 3.855469 -2.8125 C 6.988281 -7.800781 5.625 -14.933594 7.914062 -20.007812 C 7.945312 -20.121094 7.972656 -20.210938 7.972656 -20.238281 C 7.972656 -20.46875 7.859375 -20.644531 7.625 -20.789062 C 7.507812 -20.820312 7.421875 -20.847656 7.394531 -20.847656 C 7.132812 -20.847656 6.957031 -20.730469 6.871094 -20.5 C 4.320312 -15.046875 5.972656 -7.394531 2.492188 -2.871094 C 1.21875 -2.871094 0.320312 -2.753906 -0.144531 -2.4375 C -0.578125 -2.117188 -0.8125 -1.710938 -0.8125 -1.21875 C -0.8125 -0.550781 -0.375 0 0.40625 0 C 1.074219 0 1.972656 -0.433594 3.042969 -1.683594 C 6.640625 -1.566406 10.089844 -0.929688 13.597656 -0.929688 C 14.902344 -0.929688 16.179688 -1.015625 17.484375 -1.246094 Z M 0.523438 -1.480469 C 0.609375 -1.507812 0.78125 -1.625 1.390625 -1.652344 C 0.726562 -1.042969 0.320312 -1.042969 0.320312 -1.246094 C 0.320312 -1.332031 0.375 -1.390625 0.523438 -1.480469 Z M 0.523438 -1.480469 "/></g></g></g><g fill="#d9d9d9" fill-opacity="1"><g transform="translate(186.734068, 244.820756)"><g><path d="M 1.480469 -7.191406 C 1.59375 -7.21875 1.710938 -7.21875 1.796875 -7.21875 L 2.117188 -7.21875 C 3.042969 -7.308594 3.742188 -7.308594 4.464844 -7.308594 C 5.160156 -7.308594 5.914062 -7.277344 6.871094 -7.191406 L 6.929688 -7.191406 C 7.25 -7.191406 7.480469 -7.421875 7.507812 -7.742188 C 7.507812 -8.117188 7.335938 -8.320312 6.957031 -8.351562 C 6.003906 -8.4375 5.277344 -8.464844 4.550781 -8.464844 C 3.769531 -8.464844 3.015625 -8.464844 2.058594 -8.378906 L 1.738281 -8.378906 C 1.652344 -8.378906 1.535156 -8.378906 1.421875 -8.351562 C 1.101562 -8.351562 0.871094 -8.089844 0.871094 -7.769531 C 0.898438 -7.453125 1.160156 -7.191406 1.480469 -7.191406 Z M 1.480469 -7.191406 "/></g></g></g><g fill="#d9d9d9" fill-opacity="1"><g transform="translate(198.21581, 244.820756)"><g><path d="M 6.003906 -0.0273438 C 9.277344 -0.347656 12.84375 -3.246094 14.84375 -7.25 C 14.875 -7.363281 14.902344 -7.453125 14.902344 -7.507812 C 14.902344 -7.828125 14.671875 -8.089844 14.324219 -8.089844 C 14.089844 -8.089844 13.917969 -7.972656 13.800781 -7.769531 C 12.179688 -4.496094 8.785156 -1.160156 5.304688 -1.160156 C 2.347656 -1.160156 1.160156 -3.742188 1.160156 -6.988281 C 1.160156 -9.539062 1.882812 -12.410156 3.015625 -14.84375 C 4.695312 -18.527344 6.640625 -19.660156 8.089844 -19.660156 C 9.65625 -19.660156 10.726562 -18.355469 10.640625 -17.511719 C 10.613281 -17.164062 10.875 -16.875 11.222656 -16.875 C 11.539062 -16.875 11.773438 -17.078125 11.800781 -17.398438 C 11.945312 -18.90625 10.320312 -20.820312 8.089844 -20.820312 C 6.203125 -20.820312 3.914062 -19.457031 1.972656 -15.339844 C 0.726562 -12.699219 0 -9.683594 0 -7.015625 C 0 -3.160156 1.535156 0 5.25 0 L 5.625 0 C 5.742188 0 5.855469 0 6.003906 -0.0273438 Z M 6.003906 -0.0273438 "/></g></g></g><g fill="#d9d9d9" fill-opacity="1"><g transform="translate(214.829174, 244.820756)"><g><path d="M 11.308594 -6.058594 C 12.496094 -6.554688 13.773438 -7.335938 15.078125 -8.351562 C 15.222656 -8.464844 15.308594 -8.613281 15.308594 -8.785156 C 15.308594 -8.902344 15.25 -9.015625 15.164062 -9.164062 C 15.078125 -9.308594 14.933594 -9.367188 14.730469 -9.367188 C 14.585938 -9.367188 14.441406 -9.335938 14.351562 -9.25 C 13.425781 -8.523438 12.554688 -7.972656 11.714844 -7.539062 C 12.03125 -8.785156 12.179688 -10.148438 12.179688 -11.453125 C 12.179688 -13.886719 11.683594 -16.238281 10.554688 -18.09375 C 9.367188 -20.066406 7.800781 -20.847656 6.261719 -20.847656 C 3.101562 -20.847656 0 -17.398438 0 -13.425781 C 0 -12.0625 0.375 -10.613281 1.21875 -9.25 C 1.015625 -8.234375 0.929688 -7.277344 0.929688 -6.4375 C 0.929688 -2.320312 2.957031 0 5.304688 0 C 7.421875 0 9.828125 -1.882812 11.308594 -6.058594 Z M 10.378906 -6.957031 C 9.65625 -6.699219 8.902344 -6.582031 8.148438 -6.582031 C 5.683594 -6.582031 3.59375 -7.886719 2.464844 -9.480469 C 2.726562 -10.726562 3.1875 -11.976562 3.769531 -13.105469 C 3.796875 -13.222656 3.828125 -13.308594 3.828125 -13.367188 C 3.828125 -13.570312 3.742188 -13.714844 3.539062 -13.859375 C 3.449219 -13.917969 3.335938 -13.945312 3.246094 -13.945312 C 3.015625 -13.945312 2.839844 -13.832031 2.753906 -13.628906 C 2.289062 -12.785156 1.972656 -11.886719 1.652344 -10.988281 C 1.332031 -11.828125 1.1875 -12.671875 1.1875 -13.511719 C 1.1875 -16.902344 3.742188 -19.660156 6.261719 -19.660156 C 8.117188 -19.660156 9.972656 -18.152344 10.757812 -14.324219 C 10.960938 -13.394531 11.046875 -12.46875 11.046875 -11.453125 C 11.046875 -9.945312 10.816406 -8.4375 10.378906 -6.957031 Z M 9.886719 -5.625 C 8.523438 -2.492188 6.84375 -1.160156 5.335938 -1.160156 C 3.566406 -1.160156 2.117188 -3.074219 2.117188 -6.464844 C 2.117188 -6.929688 2.144531 -7.453125 2.203125 -8.003906 C 3.683594 -6.496094 5.769531 -5.421875 8.117188 -5.421875 C 8.726562 -5.421875 9.335938 -5.480469 9.886719 -5.625 Z M 9.886719 -5.625 "/></g></g></g><g fill="#d9d9d9" fill-opacity="1"><g transform="translate(231.964401, 244.820756)"><g><path d="M 10.320312 0.261719 C 10.640625 0.230469 10.84375 0.0273438 10.84375 -0.289062 L 10.84375 -0.347656 C 10.726562 -2.085938 10.699219 -3.855469 10.699219 -5.625 C 10.699219 -8.523438 10.785156 -11.394531 10.785156 -14.292969 C 10.785156 -16.121094 10.726562 -17.976562 10.613281 -19.804688 C 10.582031 -20.121094 10.378906 -20.324219 10.0625 -20.324219 L 10.003906 -20.324219 C 9.683594 -20.324219 9.453125 -20.09375 9.453125 -19.773438 C 9.367188 -16.148438 8.84375 -12.0625 7.886719 -8.320312 C 6.582031 -3.246094 5.160156 -1.1875 4.089844 -1.1875 C 2.898438 -1.1875 2.058594 -3.625 2.058594 -7.25 C 2.058594 -10.292969 2.609375 -14.207031 4.089844 -18.296875 C 4.234375 -18.671875 3.972656 -19.078125 3.539062 -19.078125 C 3.277344 -19.078125 3.074219 -18.960938 2.988281 -18.703125 C 1.390625 -14.265625 0.8125 -10.523438 0.8125 -7.507812 C 0.8125 -2.753906 2.347656 0 4.175781 0 C 5.335938 0 6.582031 -1.128906 7.597656 -3.59375 C 8.4375 -5.710938 9.132812 -8.351562 9.566406 -10.554688 C 9.566406 -8.929688 9.539062 -7.363281 9.539062 -5.742188 C 9.539062 -3.886719 9.566406 -2.117188 9.683594 -0.261719 C 9.714844 0.0585938 9.945312 0.261719 10.265625 0.261719 Z M 10.320312 0.261719 "/></g></g></g><g fill="#d9d9d9" fill-opacity="1"><g transform="translate(247.679003, 244.820756)"><g><path d="M 4.4375 0 C 4.753906 0 4.957031 -0.230469 4.957031 -0.550781 L 4.957031 -0.609375 C 4.8125 -3.015625 4.753906 -5.363281 4.753906 -7.769531 C 5.886719 -7.105469 6.261719 -6.667969 12.46875 -1.246094 C 12.554688 -1.160156 12.699219 -1.101562 12.875 -1.101562 C 13.046875 -1.101562 13.191406 -1.160156 13.308594 -1.304688 C 13.394531 -1.449219 13.453125 -1.566406 13.453125 -1.683594 C 13.453125 -1.828125 13.394531 -1.972656 13.25 -2.117188 C 7.105469 -7.566406 6.464844 -8.117188 5.101562 -8.902344 C 10.410156 -11.714844 12.757812 -14.699219 12.757812 -16.992188 C 12.757812 -19.3125 10.46875 -20.847656 6.496094 -20.847656 L 6.003906 -20.847656 C 5.855469 -20.847656 5.683594 -20.847656 5.539062 -20.820312 L 5.597656 -21.28125 C 5.625 -21.628906 5.394531 -21.921875 5.046875 -21.921875 C 4.726562 -21.921875 4.523438 -21.71875 4.4375 -21.398438 L 4.347656 -20.703125 C 3.449219 -20.585938 2.636719 -20.382812 1.796875 -20.121094 C 1.535156 -20.035156 1.390625 -19.804688 1.390625 -19.570312 C 1.390625 -19.484375 1.390625 -19.425781 1.421875 -19.398438 C 1.480469 -19.136719 1.652344 -18.992188 1.972656 -18.992188 C 2.058594 -18.992188 2.117188 -18.992188 2.144531 -19.019531 C 2.8125 -19.222656 3.507812 -19.398438 4.234375 -19.511719 C 3.886719 -16.207031 3.683594 -12.875 3.625 -9.539062 C 3.101562 -9.683594 2.582031 -9.742188 2.058594 -9.742188 C 0.40625 -9.742188 -0.78125 -8.988281 -1.101562 -8.261719 C -1.160156 -8.117188 -1.1875 -7.972656 -1.1875 -7.859375 C -1.1875 -7.308594 -0.753906 -6.8125 0.0273438 -6.8125 C 0.289062 -6.8125 0.578125 -6.84375 0.898438 -6.988281 C 1.855469 -7.363281 2.753906 -7.710938 3.59375 -8.148438 C 3.59375 -5.597656 3.625 -3.074219 3.828125 -0.523438 C 3.828125 -0.203125 4.058594 0 4.378906 0 Z M 4.785156 -10.0625 C 4.871094 -13.28125 5.074219 -16.441406 5.421875 -19.660156 C 5.597656 -19.6875 5.769531 -19.6875 5.945312 -19.6875 L 6.496094 -19.6875 C 8.816406 -19.6875 11.570312 -19.136719 11.570312 -16.902344 C 11.570312 -14.148438 7.21875 -11.335938 4.785156 -10.0625 Z M 0.0585938 -7.945312 C 0.261719 -8.148438 0.839844 -8.496094 1.738281 -8.582031 C 0.433594 -7.972656 0.203125 -7.945312 0.0585938 -7.945312 Z M 0.0585938 -7.945312 "/></g></g></g><g fill="#d9d9d9" fill-opacity="1"><g transform="translate(264.23438, 244.820756)"><g><path d="M 4.4375 0 C 4.753906 0 4.957031 -0.230469 4.957031 -0.550781 L 4.957031 -0.609375 C 4.8125 -3.015625 4.753906 -5.363281 4.753906 -7.769531 C 5.886719 -7.105469 6.261719 -6.667969 12.46875 -1.246094 C 12.554688 -1.160156 12.699219 -1.101562 12.875 -1.101562 C 13.046875 -1.101562 13.191406 -1.160156 13.308594 -1.304688 C 13.394531 -1.449219 13.453125 -1.566406 13.453125 -1.683594 C 13.453125 -1.828125 13.394531 -1.972656 13.25 -2.117188 C 7.105469 -7.566406 6.464844 -8.117188 5.101562 -8.902344 C 10.410156 -11.714844 12.757812 -14.699219 12.757812 -16.992188 C 12.757812 -19.3125 10.46875 -20.847656 6.496094 -20.847656 L 6.003906 -20.847656 C 5.855469 -20.847656 5.683594 -20.847656 5.539062 -20.820312 L 5.597656 -21.28125 C 5.625 -21.628906 5.394531 -21.921875 5.046875 -21.921875 C 4.726562 -21.921875 4.523438 -21.71875 4.4375 -21.398438 L 4.347656 -20.703125 C 3.449219 -20.585938 2.636719 -20.382812 1.796875 -20.121094 C 1.535156 -20.035156 1.390625 -19.804688 1.390625 -19.570312 C 1.390625 -19.484375 1.390625 -19.425781 1.421875 -19.398438 C 1.480469 -19.136719 1.652344 -18.992188 1.972656 -18.992188 C 2.058594 -18.992188 2.117188 -18.992188 2.144531 -19.019531 C 2.8125 -19.222656 3.507812 -19.398438 4.234375 -19.511719 C 3.886719 -16.207031 3.683594 -12.875 3.625 -9.539062 C 3.101562 -9.683594 2.582031 -9.742188 2.058594 -9.742188 C 0.40625 -9.742188 -0.78125 -8.988281 -1.101562 -8.261719 C -1.160156 -8.117188 -1.1875 -7.972656 -1.1875 -7.859375 C -1.1875 -7.308594 -0.753906 -6.8125 0.0273438 -6.8125 C 0.289062 -6.8125 0.578125 -6.84375 0.898438 -6.988281 C 1.855469 -7.363281 2.753906 -7.710938 3.59375 -8.148438 C 3.59375 -5.597656 3.625 -3.074219 3.828125 -0.523438 C 3.828125 -0.203125 4.058594 0 4.378906 0 Z M 4.785156 -10.0625 C 4.871094 -13.28125 5.074219 -16.441406 5.421875 -19.660156 C 5.597656 -19.6875 5.769531 -19.6875 5.945312 -19.6875 L 6.496094 -19.6875 C 8.816406 -19.6875 11.570312 -19.136719 11.570312 -16.902344 C 11.570312 -14.148438 7.21875 -11.335938 4.785156 -10.0625 Z M 0.0585938 -7.945312 C 0.261719 -8.148438 0.839844 -8.496094 1.738281 -8.582031 C 0.433594 -7.972656 0.203125 -7.945312 0.0585938 -7.945312 Z M 0.0585938 -7.945312 "/></g></g></g></svg>